<svg viewBox="0 0 100 100" xmlns="http://www.w3.org/2000/svg"><path d="m95 50.18c0-5.51-4.26-10.04-9.66-10.49l-8.19-14.19c1.22-1.72 1.94-3.81 1.94-6.07 0-5.81-4.73-10.53-10.53-10.53-4.21 0-7.84 2.49-9.53 6.07h-16.32c-1.69-3.58-5.32-6.07-9.53-6.07-5.81 0-10.53 4.73-10.53 10.53 0 2.24.71 4.31 1.9 6.02l-8.22 14.24c-.26-.02-.53-.04-.79-.04-5.81 0-10.54 4.72-10.54 10.53s4.73 10.54 10.53 10.54c.34 0 .67-.02 1-.05l8.02 13.89c-1.19 1.71-1.9 3.78-1.9 6.02 0 5.81 4.73 10.53 10.53 10.53 4.21 0 7.84-2.49 9.53-6.07h16.32c1.69 3.58 5.32 6.07 9.53 6.07 5.81 0 10.53-4.73 10.53-10.53 0-2.26-.72-4.35-1.94-6.07l7.98-13.82c5.5-.35 9.87-4.92 9.87-10.51zm-3.08 0c0 4.07-3.27 7.37-7.32 7.44l-.33-.01c-1.68-.04-3.27-.66-4.59-1.77l-.54-.46c-1.32-1.35-2.14-3.18-2.14-5.21 0-2.06.84-3.92 2.19-5.27l.61-.5c.34-.27.69-.51 1.05-.72.01 0 .02-.01.02-.01.34-.19.68-.35 1.04-.48.13-.05.26-.08.39-.12.27-.08.54-.17.81-.22.4-.07.81-.12 1.23-.12.03 0 .05-.01.08-.01h.06c4.12.03 7.44 3.36 7.44 7.46zm-23.37 19.86c-4.21 0-7.84 2.49-9.53 6.07h-16.31c-1.69-3.58-5.32-6.07-9.53-6.07-.3 0-.6.02-.9.05l-8.06-13.96c1.16-1.69 1.84-3.74 1.84-5.94 0-2.27-.73-4.38-1.96-6.1l8.18-14.17c.3.03.59.05.9.05 4.21 0 7.84-2.49 9.53-6.07h16.32c1.69 3.58 5.32 6.07 9.53 6.07.28 0 .55-.02.83-.04l7.49 12.98c-1.82 1.89-2.95 4.46-2.95 7.29 0 2.76 1.07 5.26 2.82 7.14l-7.36 12.75c-.28-.03-.56-.05-.84-.05zm3.96.78 6.66-11.54c.8.47 1.67.83 2.59 1.08l-6.84 11.84c-.73-.56-1.54-1.03-2.41-1.38zm9.4-30.85c-.91.23-1.78.57-2.58 1.02l-6.82-11.81c.87-.35 1.68-.82 2.41-1.39l7.02 12.17c-.01.01-.02.01-.03.01zm-13.36-28c4.11 0 7.46 3.35 7.46 7.46 0 1.79-.66 3.41-1.72 4.7l-.17.2c-.28.31-.57.6-.89.86-.01.01-.03.02-.04.03-.29.23-.59.44-.91.63-.09.05-.17.09-.26.14-.28.15-.56.29-.86.4-.13.05-.26.08-.39.12-.28.09-.57.18-.87.24l-.03.01c-.43.08-.88.14-1.34.14-3.04 0-5.65-1.83-6.81-4.44l-.21-.59c-.14-.42-.25-.81-.32-1.2-.07-.4-.12-.81-.12-1.23s.06-.83.12-1.23c.07-.39.18-.78.32-1.2l.21-.59c1.19-2.62 3.8-4.45 6.83-4.45zm-10.43 6.07c-.06.46-.1.92-.1 1.39s.04.94.1 1.39h-14.5c.06-.46.1-.92.1-1.39s-.04-.94-.1-1.39zm-24.93-6.07c3.03 0 5.64 1.83 6.8 4.43l.21.6c.14.41.25.81.32 1.19.07.4.12.81.12 1.23s-.06.83-.12 1.23c-.07.39-.18.78-.32 1.19l-.21.6c-1.16 2.6-3.77 4.43-6.8 4.43-.48 0-.95-.05-1.4-.14h-.02c-.24-.05-.46-.13-.69-.19-.19-.06-.39-.11-.57-.18-.28-.11-.54-.24-.8-.38-.1-.05-.21-.11-.31-.17-.31-.19-.61-.4-.9-.63-.01-.01-.03-.02-.04-.03-.31-.26-.61-.55-.88-.87l-.2-.23c-1.02-1.28-1.65-2.87-1.65-4.62 0-4.11 3.34-7.46 7.46-7.46zm-6.42 15.79c.73.57 1.54 1.04 2.4 1.4l-7.29 12.63c-.74-.56-1.55-1.03-2.42-1.38zm-18.69 22.42c0-4.11 3.35-7.46 7.46-7.46.44 0 .87.06 1.3.13l.04.01c.32.06.63.15.94.26.1.03.21.06.31.1.31.12.61.26.9.41.08.04.16.08.23.13.32.19.62.39.91.62.02.01.03.02.05.04.31.26.61.54.88.85l.12.13c1.1 1.3 1.79 2.96 1.79 4.79 0 1.63-.54 3.13-1.44 4.36l-.37.43c-.28.33-.57.62-.89.89-.01.01-.02.02-.03.02-.28.24-.58.45-.89.65-.14.08-.28.15-.42.23-.22.12-.44.24-.67.33-.39.16-.8.29-1.22.38-.01 0-.03.01-.04.01h-.01c-.48.1-.98.15-1.5.15-4.11 0-7.45-3.34-7.45-7.46zm13.95 8.28 7.14 12.37c-.87.36-1.67.84-2.4 1.4l-7.13-12.35c.86-.36 1.66-.84 2.39-1.42zm11.16 29.57c-4.11 0-7.46-3.35-7.46-7.46 0-1.75.63-3.35 1.65-4.62l.2-.23c.28-.32.57-.61.88-.87.01-.01.03-.02.04-.03.28-.24.59-.44.9-.63.1-.06.2-.11.31-.17.26-.14.52-.27.8-.38.19-.07.38-.12.57-.18.23-.07.45-.15.69-.19h.02c.46-.09.92-.14 1.4-.14 3.03 0 5.64 1.83 6.8 4.43l.21.6c.14.41.25.81.32 1.19.07.4.12.81.12 1.23s-.06.83-.12 1.23c-.07.39-.18.78-.32 1.19l-.21.6c-1.17 2.6-3.77 4.43-6.8 4.43zm10.43-6.07c.06-.46.1-.92.1-1.39s-.04-.94-.1-1.39h14.51c-.06.46-.1.92-.1 1.39s.04.94.1 1.39zm24.93 6.07c-3.04 0-5.64-1.83-6.81-4.44l-.2-.59c-.14-.42-.25-.81-.32-1.2-.07-.4-.12-.81-.12-1.23s.06-.83.12-1.23c.07-.39.18-.78.32-1.2l.21-.59c1.16-2.61 3.77-4.44 6.81-4.44.46 0 .9.06 1.34.14l.03.01c.3.06.58.15.87.24.13.04.26.07.39.12.3.11.58.25.86.4.09.05.17.09.26.14.32.19.62.39.91.63l.03.03c.31.26.61.55.89.86l.17.19c1.06 1.29 1.72 2.91 1.72 4.7-.02 4.11-3.36 7.46-7.48 7.46z"/></svg>