<svg viewBox="0 0 100 100" xmlns="http://www.w3.org/2000/svg"><path d="m86.08 9.59h-72.16c-4.92 0-8.92 4-8.92 8.92v53.21c0 4.92 4 8.92 8.92 8.92h19.6l-3.79 6.56h-8.89c-.89 0-1.6.72-1.6 1.6 0 .89.72 1.6 1.6 1.6h58.29c.89 0 1.6-.72 1.6-1.6 0-.89-.72-1.6-1.6-1.6h-8.89l-3.79-6.56h19.6c4.92 0 8.92-4 8.92-8.92v-53.21c.03-4.92-3.97-8.92-8.89-8.92zm-19.53 77.61h-33.1l3.79-6.56h25.54zm25.24-15.48c0 3.15-2.56 5.71-5.71 5.71h-21.46-3.71-21.82-3.71-21.46c-3.15 0-5.71-2.56-5.71-5.71v-2.39h83.58zm0-5.6h-83.58v-47.61c0-3.15 2.56-5.71 5.71-5.71h72.15c3.15 0 5.71 2.56 5.71 5.71v47.61zm-43.28 7.26c0-.82.67-1.49 1.49-1.49s1.49.67 1.49 1.49-.67 1.49-1.49 1.49-1.49-.66-1.49-1.49zm10.8-32.47 6.55-6.55-34.02-13.06 13.06 34.02 6.55-6.55 8.85 8.85 7.87-7.87zm-7.86 3.94-5.49 5.49-9.29-24.21 24.21 9.29-5.49 5.49 8.85 8.85-3.94 3.94z"/></svg>