<svg viewBox="0 0 100 100" xmlns="http://www.w3.org/2000/svg"><path d="m26.76 95c5.77.02 11.31-2.28 15.39-6.37l48.33-48.33c.59-.59.59-1.54 0-2.13l-4.52-4.52-2.13 2.13 3.46 3.46-47.28 47.26c-7.32 7.32-19.19 7.32-26.51 0s-7.32-19.19 0-26.51l47.27-47.27 3.46 3.46 2.13-2.13-4.52-4.52c-.59-.59-1.54-.59-2.13 0l-48.34 48.33c-6.22 6.22-8.08 15.58-4.72 23.71 3.38 8.13 11.31 13.43 20.11 13.43zm51.03-90c-5.12 5.1-8 12.03-7.98 19.26v2.91h-2.91c-15.04 0-27.24 12.2-27.24 27.24v2.91h-.78c-8.59-.02-16.84 3.39-22.9 9.49l2.13 2.13c3.02-3.02 6.66-5.33 10.67-6.79l9.06 9.06c-.79 2.18-1.83 4.26-3.11 6.19l-7.58-7.58-2.13 2.13 7.88 7.88c-.59.7-1.2 1.39-1.85 2.04l2.13 2.13c6.09-6.06 9.51-14.31 9.48-22.9v-.78h2.91c15.04 0 27.24-12.2 27.24-27.24v-2.91h2.91c7.25.03 14.18-2.84 19.28-7.96l-2.13-2.13c-2.78 2.78-6.19 4.85-9.95 6.01l-9.01-9.01c.59-1.88 1.41-3.68 2.44-5.36l8.98 8.98 2.13-2.13-9.36-9.37c.57-.72 1.18-1.41 1.83-2.07zm-38.12 56.11c-.01 2.3-.29 4.59-.82 6.82l-6.77-6.77c2.23-.54 4.52-.82 6.82-.82h.78v.77zm3.01-3.79v-2.91c0-.8.04-1.6.12-2.38l5.17 5.17c-.79.08-1.58.11-2.38.12zm8.9-.78-8.12-8.12c.49-1.95 1.22-3.84 2.19-5.61l8.04 8.04 2.13-2.13-8.5-8.5c.75-1.04 1.57-2.02 2.47-2.93 2.5-2.5 5.51-4.41 8.83-5.61l9.72 9.72c-.66 1.83-1.53 3.57-2.61 5.19l-6.9-6.9-2.13 2.13 7.17 7.17c-.37.42-.73.85-1.14 1.25-3.09 3.06-6.94 5.24-11.15 6.3zm18.24-23.45c0 1.68-.18 3.35-.52 4.99l-7.38-7.38c1.64-.34 3.31-.52 4.99-.52h2.91zm9.62-6.22c-1.22.19-2.46.3-3.7.3h-2.91v-2.91c.01-1.24.11-2.47.3-3.7zm0 0"/></svg>