<svg enable-background="new 0 0 85 110" viewBox="0 0 85 110" xmlns="http://www.w3.org/2000/svg" xmlns:xlink="http://www.w3.org/1999/xlink"><symbol id="a" viewBox="-34.7 -3 69.4 6"><path d="m-34.7-3h36v4h-36z" fill="#ccc"/><path d="m34.7 3h-69.4v-2h68.1c.2.8.7 1.5 1.3 2z" fill="#009ade"/></symbol><clipPath id="b"><path d="m5 31h69.4v6h-69.4z"/></clipPath><clipPath id="c"><path d="m5 39h69.4v6h-69.4z"/></clipPath><clipPath id="d"><path d="m5 47h69.4v6h-69.4z"/></clipPath><path d="m0 0h85v110h-85z" fill="#fff"/><path d="m83 2v106h-81v-106zm2-2h-85v110h85z" fill="#ccc"/><path d="m8 17h72v2h-72z" fill="#009ade"/><path d="m8 21h72v2h-72z" fill="#ccc"/><circle cx="6" cy="18" fill="#009ade" r="1"/><circle cx="6" cy="22" fill="#ccc" r="1"/><path d="m8 25h72v2h-72z" fill="#ccc"/><circle cx="6" cy="26" fill="#ccc" r="1"/><path d="m5 95h75v2h-75z" fill="#009ade"/><g fill="#ccc"><path d="m5 99h75v2h-75z"/><path d="m5 103h75v2h-75z"/><path d="m5 59h36v6h-36z"/><path d="m44 59h36v6h-36z"/></g><g clip-path="url(#b)"><use height="6" transform="matrix(1 0 0 -1 39.7 34)" width="69.4" x="-34.7" xlink:href="#a" y="-3"/></g><g transform="translate(73 42)"><circle cx="4" cy="-8" fill="#02bf68" r="3"/><g fill="#414042"><path d="m-6.356-6.214h1v2.5h-1z" transform="matrix(-.70710319497 .70711036503 -.70711036503 -.70710319497 -4.75172887143 -6.56853595455)"/><path d="m-7.056-7.014h4v1h-4z" transform="matrix(-.70710319497 .70711036503 -.70711036503 -.70710319497 -3.62035802343 -8.76056697255)"/></g></g><circle cx="77" cy="42" fill="#f9a825" r="3"/><path d="m75.5 41.5h3v1h-3z" fill="#414042"/><g clip-path="url(#c)"><use height="6" transform="matrix(1 0 0 -1 39.7 42)" width="69.4" x="-34.7" xlink:href="#a" y="-3"/></g><circle cx="77" cy="50" fill="#ff7676" r="3"/><path d="m2.5-20.5h1v4h-1z" fill="#414042" transform="matrix(.7071 -.7071 .7071 .7071 87.9601 65.2029)"/><path d="m1-19h4v1h-4z" fill="#414042" transform="matrix(.7071 -.7071 .7071 .7071 87.9601 65.2029)"/><g clip-path="url(#d)"><use height="6" transform="matrix(1 0 0 -1 39.7 50)" width="69.4" x="-34.7" xlink:href="#a" y="-3"/></g><path d="m5 68h75v21h-75z" fill="#ccc"/><g transform="matrix(.79309574 0 0 -.79309574 10 30.307526)"><g fill="#414042"><path d="m14.003 25.661c-.298-2.541-2.656-4.63-5.595-4.63-3.011 0-5.453 2.287-5.453 5.44s2.442 5.439 5.453 5.439c1.931 0 3.82-.951 4.772-2.514h-.511c-1.051 1.378-2.542 2.13-4.26 2.13-2.784 0-5.027-2.144-5.027-5.056 0-2.911 2.244-5.056 5.027-5.056 2.67 0 4.7 1.903 5.084 3.863h-6.264v.384z"/><path d="m21.517 31.725v-.384h-5.34v-4.644h5.34v-.384h-5.34v-4.714h5.34v-.384h-5.765v10.509h5.765"/><path d="m31.53 21.784h.028v9.941h.426v-10.508h-.54l-7.299 10.082h-.028v-10.082h-.426v10.509h.639z"/><path d="m40.109 31.725v-.384h-5.34v-4.644h5.34v-.384h-5.34v-4.714h5.34v-.384h-5.766v10.509h5.766"/><path d="m47.395 31.725v-.384h-2.855v-10.124h-.426v10.125h-2.854v.384h6.135"/><path d="m48.745 21.217h.426v10.509h-.426z"/></g><path d="m61.072 23.503c-.71-1.207-2.386-2.472-4.587-2.472-3.011 0-5.453 2.287-5.453 5.44s2.443 5.439 5.453 5.439c2.244-.014 3.834-1.335 4.602-2.527h-.497c-.397.554-1.775 2.13-4.104 2.144-2.783 0-5.027-2.144-5.027-5.056 0-2.911 2.244-5.056 5.027-5.056 2.457 0 3.806 1.676 4.104 2.088z" fill="#009ade"/><path d="m62.863 31.725h.426v-6.816c0-1.023 0-1.676.653-2.528.454-.597 1.32-.966 2.158-.966.796 0 1.662.37 2.116.966.653.851.653 1.504.653 2.528v6.817h.426v-6.817c.015-.951-.028-2.372-1.263-3.238-.54-.398-1.235-.64-1.96-.64-.711 0-1.407.242-1.946.64-1.236.866-1.278 2.286-1.263 3.238z" fill="#009ade"/><path d="m73.899 31.725c1.632 0 2.286-.142 2.797-.44.852-.426 1.519-1.576 1.519-2.798.058-1.307-.809-3.28-3.095-3.295l-.412-.014 2.827-3.962h-.54l-3.082 4.345h.653c.994 0 1.634.085 2.329.668.667.696.895 1.42.895 2.244 0 .909-.441 1.917-1.25 2.442-.639.412-1.406.426-2.641.426h-1.975v-10.125h-.426v10.509z" fill="#009ade"/><path d="m85.445 31.725v-.384h-5.34v-4.644h5.34v-.384h-5.34v-4.714h5.34v-.384h-5.766v10.509h5.766" fill="#009ade"/><path d="m-2.891 31.714h-1.906c-.833 0-1.507-.675-1.507-1.507 0-.833.675-1.508 1.507-1.508h1.906z" fill="#414042"/><path d="m-2.51 28.699h1.906c.833 0 1.507.675 1.507 1.507 0 .833-.675 1.508-1.507 1.508h-1.906z" fill="#009ade"/><path d="m-2.891 24.226h-1.906c-.833 0-1.507-.675-1.507-1.507 0-.833.675-1.508 1.507-1.508h1.906z" fill="#414042"/><path d="m-2.51 21.211h1.906c.833 0 1.507.675 1.507 1.507 0 .834-.675 1.508-1.507 1.508h-1.906z" fill="#009ade"/><path d="m-2.51 27.97h1.907c.832 0 1.507-.675 1.507-1.507 0-.833-.675-1.508-1.507-1.508h-1.907z" fill="#414042"/><path d="m-2.89 24.955h-1.907c-.832 0-1.507.675-1.507 1.507 0 .833.675 1.508 1.507 1.508h1.907z" fill="#009ade"/><path d="m86.984 31.328v-.468h.345c.079.01.35.005.35.239 0 .229-.239.229-.321.229zm.388.064c.064 0 .377 0 .377-.294 0-.146-.096-.234-.212-.266v-.005c.155-.037.182-.131.189-.246.015-.22.015-.242.037-.281h-.072c-.017.027-.017.044-.029.246-.011.153-.025.249-.328.249h-.35v-.496h-.069v1.092zm-.923-.54c0-.491.379-.875.873-.875.486 0 .87.38.87.875 0 .478-.365.875-.87.875-.508 0-.873-.399-.873-.875zm1.813 0c0-.535-.419-.94-.94-.94-.527 0-.942.4-.942.94 0 .515.397.939.942.939.537 0 .94-.419.94-.939" fill="#414042"/></g></svg>