<svg viewBox="0 0 100 100" xmlns="http://www.w3.org/2000/svg"><path d="m83.82 70.32c-1.14-2.65-3.41-4.54-5.55-6.18-.76-.5-1.51-1.01-2.4-1.64l-2.78-1.64c-.76-.38-1.51-.76-2.4-1.26l-.88-.5c-.76-.38-1.64-.88-2.52-1.26-1.14-.5-2.15-1.01-3.28-1.26l-1.39-.38-.63 1.01c-.63.88-6.44 6.44-11.99 11.48-5.55-5.17-11.36-10.6-11.99-11.48l-.63-1.01-1.39.5c-1.01.25-2.02.63-3.15 1.26-.88.38-1.77.88-2.65 1.26l-1.01.5c-.25.13-.5.25-.76.38l-2.9 1.64c-1.26.76-2.52 1.51-3.53 2.27-2.4 1.77-4.67 3.66-5.8 6.18-1.01 2.27-1.01 4.92-.88 7.19v.88 6.81c0 2.65 2.15 4.92 4.92 4.92h59.56c2.65 0 4.92-2.15 4.92-4.92s0-6.56 0-6.81v-.76c.12-2.26.12-4.91-.89-7.18zm-12.75 6.94c-.38.76-1.14 1.39-2.02 1.64s-1.77.25-2.52-.25c-.76-.38-1.39-1.14-1.64-2.02s-.25-1.77.25-2.52c.38-.76 1.14-1.39 2.02-1.64.38-.13.63-.13 1.01-.13.5 0 1.01.13 1.51.38.76.38 1.39 1.14 1.64 2.02.26.88.26 1.76-.25 2.52zm10.48 0v.76 6.94c0 1.01-.76 1.77-1.77 1.77h-59.56c-1.01 0-1.77-.76-1.77-1.77 0-4.42 0-6.69 0-6.94v-.88c-.13-1.89-.13-4.04.63-5.68.88-1.89 2.78-3.41 4.67-4.79.88-.76 2.02-1.39 3.15-2.15l1.51-.88c.25 1.14.5 2.4.88 3.53-.76.38-1.39.76-1.89 1.39-.63.63-1.26 1.39-1.64 2.27-.76 1.64-1.01 3.53-.63 5.3l1.64 6.94 4.92-1.14c.88-.25 1.39-1.01 1.14-1.89s-1.01-1.39-1.89-1.14l-1.89.38-.88-3.91c-.25-1.14-.13-2.15.38-3.15.25-.5.63-1.01 1.01-1.39.63-.63 1.39-1.01 2.27-1.26s1.77-.13 2.52.13c.38.13.76.25 1.14.5.13.13.25.13.38.25.88.63 1.51 1.64 1.77 2.65l.88 3.9-1.89.38c-.88.25-1.39 1.01-1.14 1.89s1.01 1.39 1.89 1.14l4.92-1.14-1.64-6.94c-.38-1.77-1.39-3.41-2.78-4.42-.25-.25-.5-.38-.76-.5-.5-.38-1.14-.63-1.89-.88-.88-.13-1.89-.13-2.9-.13-.5-1.26-.76-2.65-1.01-3.91 0-.13 0-.13-.13-.25l.25-.13c.76-.38 1.64-.88 2.52-1.26.76-.38 1.39-.63 2.15-.88 2.65 2.78 10.22 9.84 12.74 12.11l1.01 1.01 1.01-1.01c2.52-2.27 10.09-9.34 12.74-12.11.63.25 1.39.5 2.15.88s1.64.76 2.4 1.14l.88.5c.63.38 1.26.63 1.89 1.01-.38 2.02-1.01 3.91-2.02 5.8-1.01-.13-2.02-.13-2.9.25-1.64.5-3.03 1.64-3.79 3.28-.76 1.51-.88 3.28-.38 4.92s1.64 3.03 3.28 3.79c.88.5 1.89.76 3.03.76.63 0 1.39-.13 2.02-.25 1.64-.5 3.03-1.64 3.79-3.28.76-1.51.88-3.28.38-4.92-.38-1.26-1.26-2.4-2.27-3.28.88-1.77 1.51-3.53 1.89-5.43l.25.13c.76.5 1.51 1.01 2.15 1.39 1.89 1.39 3.79 2.9 4.67 4.79.64 1.64.64 3.79.52 5.81zm-49.97-42.78v1.01s.13 1.14.25 1.64c0 .25.13.5.13.76.25 2.52 1.51 4.42 3.41 5.43 0 0 0 .13.13.13 1.14 4.54 3.53 7.95 6.94 10.35.38.25.88.63 1.39.88.63.38 1.51.63 2.27 1.01h.13c.63.25 1.26.5 2.02.63.5.13 1.14.13 1.64.13h.38c.63 0 1.14 0 1.64-.13.63-.13 1.26-.25 1.89-.63h.13c.88-.25 1.64-.63 2.4-1.01.5-.25.88-.5 1.39-.88 1.89-1.26 3.41-2.9 4.67-4.79.5-.88 1.01-1.77 1.51-3.03.13-.38.25-.88.38-1.26.13-.5.25-.88.38-1.14.25-.25.5-.63.88-.88.25-.13.38-.38.63-.5 1.51-1.39 1.89-3.03 2.02-4.42 0-.25.13-.5.13-.76.13-.5.13-1.14.25-1.64 0-.5 0-.88 0-1.26v-.13c.13-1.51-.76-3.28-2.4-3.79v-.13-.63c0-.5.13-1.14.25-1.51.38-1.51.63-3.03.63-4.54.13-5.05-2.4-9.21-6.94-11.23-.5-.25-1.01-.38-1.51-.63-2.67-1.03-5.57-1.53-8.6-1.53-.63 0-1.26 0-1.89 0-1.77.13-4.16.25-6.31 1.26-.25.13-.5.25-.63.38-.76.5-1.51 1.26-2.02 2.02-.13.13-.25.25-.25.38-.25.38-.38.5-.63.76-.5.38-.88.63-1.39.88-.88.38-1.64 1.01-2.15 1.89-.63 1.39-1.01 2.9-1.14 4.67s0 3.53.13 4.92c0 .63.13 1.26.25 2.02.13.38.13.76.25 1.26 0 0 0 0-.13 0-1.77.38-2.65 2.27-2.52 3.91v.13zm3.15.13v-.38c0-.5.13-.88.13-.88h.25.38.38.25l.25-.13c.63-.38 1.01-1.01 1.01-1.77 0-1.01-.13-2.02-.38-2.9-.13-.5-.25-1.01-.25-1.51-.13-1.26-.13-2.9-.13-4.54 0-1.26.25-2.27.63-3.03.13-.25.38-.38.63-.5.76-.25 1.39-.76 2.02-1.26.76-.63 1.01-1.01 1.26-1.51l.25-.38c.38-.5.76-.88 1.14-1.14.13-.13.25-.13.38-.25 1.39-.63 3.15-.88 5.17-1.01h1.64c2.65 0 5.17.5 7.44 1.39.38.13.88.38 1.26.5 3.41 1.51 5.17 4.54 5.05 8.33 0 1.26-.25 2.52-.5 3.91-.13.63-.25 1.39-.25 2.02l-.13.76c-.13.63-.25 1.26 0 2.02.5 1.26 1.77 1.26 2.15 1.26.13.13.25.38.25.63v.25.13 1.01c0 .5-.13.88-.13 1.39 0 .25-.13.63-.13.88-.13 1.14-.38 1.89-1.01 2.4-.13.13-.38.25-.5.38-.38.38-.88.76-1.39 1.26-.63.76-.88 1.64-1.01 2.4-.13.25-.13.5-.25.76-.38 1.01-.76 1.77-1.26 2.52-1.01 1.51-2.27 2.9-3.66 3.91-.38.25-.76.5-1.14.63-.5.25-1.14.5-1.89.76-.13 0-.25.13-.25.13-.38.13-.88.38-1.26.38-.38.13-.88.13-1.26.13s-.88 0-1.26-.13c-.5-.13-.88-.25-1.39-.38l-.25-.13c-.76-.25-1.39-.5-1.89-.76-.38-.25-.76-.5-1.14-.63-2.78-1.89-4.67-4.67-5.55-8.45-.25-1.01-.76-1.51-1.26-1.89l-.25-.13c-1.39-.76-1.77-2.27-1.89-3.15 0-.25-.13-.63-.13-.88-.13-.5-.13-.88-.13-1.39 0-.4 0-.66 0-1.03z"/></svg>