<svg viewBox="0 0 100 100" xmlns="http://www.w3.org/2000/svg"><path d="m47.76 16.66c-2.4 19.42-41.6-3.46-37.32 16.66"/><path d="m50 0c-.54 21.7-49.38-5.24-47.76 16.66"/><path d="m10.44 66.66c5.72-13.74 32.08-1.84 14.56-16.66s8.84-2.92 14.56-16.66"/><path d="m2.24 83.34c2.4-19.42 41.6 3.46 37.32-16.66"/><path d="m0 100c.54-21.7 49.38 5.24 47.76-16.66"/><path d="m97.76 66.66c-2.4 19.42-41.6-3.46-37.32 16.66"/><path d="m100 50c-.54 21.7-49.38-5.24-47.76 16.66"/><path d="m60.44 116.66c5.72-13.74 32.08-1.84 14.56-16.66s8.84-2.92 14.56-16.66"/><path d="m52.24 133.34c2.4-19.42 41.6 3.46 37.32-16.66"/><path d="m50 150c.54-21.7 49.38 5.24 47.76-16.66"/><path d="m97.76-33.34c-2.4 19.42-41.6-3.46-37.32 16.66"/><path d="m100-50c-.54 21.7-49.38-5.24-47.76 16.66"/><path d="m60.44 16.66c5.72-13.74 32.08-1.84 14.56-16.66s8.84-2.92 14.56-16.66"/><path d="m52.24 33.34c2.4-19.42 41.6 3.46 37.32-16.66"/><path d="m50 50c.54-21.7 49.38 5.24 47.76-16.66"/></svg>