<svg viewBox="0 0 100 100" xmlns="http://www.w3.org/2000/svg"><path d="m94.22 42.16-43.45-25.74-45.77-2.69 4.27 14.57 10.24 6.07-13.94 8.26v17.15l44.71 26.49 44.72-26.49v-17.15zm-85.45 15.8v-11.62l39.92 23.66v11.62zm79.66-15.51-37.9-2.23-38.63-22.89 37.9 2.23zm-38.14 24.78-27.82-16.48 12.34-7.31 9.5 5.63 5.52-4.12 4.57 7.69 20.02.32zm29.36-17.4-23.43-.37-4.5-7.58 37.61 2.21zm-30.35-8.49-5.2 3.88-32.12-19.03-2.47-8.43zm-16.06 1.16-12.34 7.32-10.6-6.28 12.34-7.31zm18.64 39.12v-11.62l28.62-16.96h.08v-.05l11.22-6.65v11.62zm41.52-38.08"/></svg>