<svg viewBox="0 0 612 612" xmlns="http://www.w3.org/2000/svg"><path d="m537.2 0c41.3 0 74.8 33.5 74.8 74.8v462.5c0 41.3-33.5 74.8-74.8 74.8h-462.4c-41.3-.1-74.8-33.6-74.8-74.9v-462.4c0-41.3 33.5-74.8 74.8-74.8z" fill="#0a66c2"/><path d="m191.8 505.9v-269.8h-89.7v269.8zm323.4 0v-154.7c0-82.9-44.2-121.4-103.3-121.4-47.6 0-68.9 26.2-80.8 44.5v-38.2h-89.7c1.2 25.3 0 269.8 0 269.8h89.7v-150.6c0-8.1.6-16.1 3-21.9 6.5-16.1 21.2-32.8 46-32.8 32.4 0 45.4 24.8 45.4 61v144.4h89.7zm-367.6-399.8c-30.7 0-50.7 20.2-50.7 46.6 0 25.9 19.4 46.6 49.6 46.6h.6c31.3 0 50.7-20.7 50.7-46.6-.7-26.4-19.5-46.6-50.2-46.6z" fill="#fff"/></svg>