<svg viewBox="0 0 52.49 60.1" xmlns="http://www.w3.org/2000/svg"><path d="m7.4 60.1c-.8 0-1.5-.4-2-1-3.7-4.9 2.6-15.9-3-19.9-1.7-2.2 3.6-1.7.8-8.7-1.4-8.5-1.9-17.1-3.2-25.8.6-2.4 4.2-1 6.7-1 3.1.2 7 1.3 7.2-1.7-.2-2.2 3.2-2.8 3.6-.5.1 6 2.7 4.9 6.5 6.6 3.6.2 6-2.9 9.5 2.4 3.8-2 4.9 3.8 7.5 1.4 2.9-2.3 2.7.2 5.5-.2 1.7-.6 3.2.6 4.4.7 1.2-.7 2.2 1.2 1 1.8-5.4 3.4-18.1 11-16.4 18.2.2 2.4-3.3 3.1-3.8 5-.6 1.3 2.3 1.8 1 4.3-2 6.4 2.7 6.2 6.1 9.5.7.9 1.5 1.7 2.5 2.2 2.5.6 4.4 6.4.8 6.7z"/><path d="m34.69 57.57-.11-.09c-2.27-1.89-2.95-2.56-2.95-3.66-.01-.89.71-1.61 1.6-1.62h.02c.57.02 1.1.29 1.44.74.34-.45.86-.73 1.43-.74.89-.01 1.61.71 1.62 1.6v.02c0 1.08-.63 1.75-2.95 3.64z"/></svg>