<svg viewBox="0 0 100 100" xmlns="http://www.w3.org/2000/svg"><path d="m21.04 50.92c0 2.92 1.72 4.47 5.17 4.65h5.44c3.81.18 7.11 1.91 9.93 5.17 2.81 3.26 4.21 6.98 4.21 11.15 0 5.08-1.81 9.34-5.44 12.78-3.63 3.45-8.16 5.17-13.6 5.17-6.35 0-11.55-2.49-15.63-7.48s-6.12-11.38-6.12-19.17c0-14.5 5.71-29.36 17.13-44.59 4.17-5.62 7.79-8.43 10.88-8.43 3.44 0 5.17 1.83 5.17 5.47 0 1.46-1 3.46-2.99 6.02-3.63 4.56-6.89 9.85-9.79 15.87-2.91 6.01-4.36 10.48-4.36 13.39zm49.49 0c0 2.92 1.72 4.47 5.16 4.65h5.44c3.62.18 6.84 1.91 9.65 5.17s4.22 6.98 4.22 11.15c0 5.08-1.82 9.34-5.44 12.78-3.63 3.45-8.16 5.17-13.6 5.17-6.35 0-11.55-2.49-15.63-7.48-4.08-4.98-6.12-11.37-6.12-19.17 0-14.5 5.71-29.36 17.13-44.59 4.17-5.62 7.79-8.43 10.88-8.43 3.44 0 5.17 1.83 5.17 5.47 0 1.46-1 3.46-2.99 6.02-4.9 6.2-8.97 13.59-12.24 22.16-1.09 2.91-1.63 5.28-1.63 7.1z"/></svg>