<svg viewBox="150 0 100 80" xmlns="http://www.w3.org/2000/svg"><path d="m176.38 46.04 12.9-1.87c3.02-.44 5.72 1.9 5.72 4.95v27.88m-18.62-36.01 14.33-2.08c2.46-.36 4.28-2.46 4.28-4.95v-23.96m-6.64 29.25v-10.33c0-7.22-5.86-13.08-13.08-13.08-8.47 0-19.92 7.74-19.92 26.16s11.45 26.16 19.92 26.16c7.22 0 13.08-5.86 13.08-13.08v-10.77m16.65-41.31v27.88c0 3.05 2.7 5.39 5.72 4.95l12.9-1.87m0 5.05-14.33 2.08c-2.46.36-4.28 2.46-4.28 4.95v23.96m6.64-29.25v10.33c0 7.22 5.86 13.08 13.08 13.08 8.47 0 19.92-7.74 19.92-26.16s-11.45-26.16-19.92-26.16c-7.22 0-13.08 5.86-13.08 13.08v10.77"/></svg>