<svg viewBox="0 0 100 100" xmlns="http://www.w3.org/2000/svg"><path d="m60.32 25.79c-1.74 0-3.73.01-5.71.01l.03-10.3c0-1.21-.97-2.19-2.18-2.2 0 0 0 0-.01 0-1.21 0-2.19.98-2.19 2.18l-.03 10.31c-3.8 0-6.88 0-7.23-.02l-1.64-.1v.2l-.12-.12c-.01.01-1.16 1.06-2.3.89-.68-.11-1.27-.67-1.74-1.3l1.63-1.59c.52-.5.62-1.29.25-1.91l-6.2-10.41c-.34-.58-1.02-.87-1.67-.72l-11 2.43c-.5.11-.92.46-1.11.94s-.14 1.02.15 1.44l9.98 15.01c.26.39.67.64 1.13.69.05.01.11.01.16.01.4 0 .79-.16 1.09-.44l2.95-2.88c1.1 1.34 2.39 2.14 3.85 2.36.27.04.54.06.81.06.79 0 1.5-.18 2.13-.42l-.2 52c0 4.83 3.93 8.76 8.78 8.77l2.43-.02c5.32-.05 9.33-3.81 9.33-8.73l.21-56.14zm-24.67-3.61c-.78-.37-1.99-1.12-3.2-2.65-1.41-1.78-1.5-4.04-1.44-5.15zm-4.87 5.09-7.68-11.56 4.78-1.06c-.03 1.67.26 4.45 2.12 6.81 1.23 1.56 2.49 2.51 3.54 3.12zm27.78 54.66c0 3.17-2.69 5.59-6.24 5.63l-2.41.02c-3.11 0-5.65-2.54-5.65-5.65l.2-53.01c1.39 0 3.51.01 5.76 0l-.09 26.98-2.79.01v.03c0 .62.49 1.12 1.1 1.15-.61.03-1.1.53-1.1 1.15 0 .61.48 1.11 1.08 1.15-.6.04-1.08.54-1.08 1.15 0 .62.49 1.12 1.1 1.15-.61.03-1.1.53-1.1 1.15 0 .61.48 1.11 1.08 1.15-.6.04-1.08.54-1.08 1.15 0 .62.49 1.12 1.1 1.15-.61.03-1.1.53-1.1 1.15 0 .6.46 1.09 1.04 1.15-.59.06-1.04.55-1.04 1.15 0 .64.52 1.16 1.16 1.16 0 0 2.34-.05 3.42-1.84.1-.16.18-.43.26-.74.04 0 .07.01.1.01h.01c1.21 0 2.19-.98 2.19-2.18l.12-37.23c1.59 0 3.06-.01 4.17-.01z"/></svg>