<svg viewBox="0 0 612 612" xmlns="http://www.w3.org/2000/svg"><path d="m537.2 0c41.3 0 74.8 33.5 74.8 74.8v462.5c0 41.3-33.5 74.8-74.8 74.8h-462.4c-41.3-.1-74.8-33.6-74.8-74.9v-462.4c0-41.3 33.5-74.8 74.8-74.8z" fill="#1da1f2"/><path d="m233.7 507.5c162.5 0 251.3-134.6 251.3-251.3 0-3.8 0-7.7-.2-11.4 17.2-12.5 32.2-28 44.1-45.8-15.8 7-32.8 11.7-50.7 13.9 18.3-11 32.2-28.2 38.8-48.9-17 10.1-35.9 17.4-56.1 21.4-16.1-17.2-39-27.8-64.5-27.8-48.7 0-88.3 39.6-88.3 88.3 0 7 .7 13.7 2.4 20.2-73.5-3.7-138.5-38.8-182.1-92.3-7.5 13-11.9 28.2-11.9 44.3 0 30.6 15.6 57.7 39.4 73.5-14.5-.4-28-4.4-39.9-11v1.1c0 42.9 30.4 78.4 70.9 86.6-7.3 2-15.2 3.1-23.3 3.1-5.7 0-11.2-.5-16.7-1.6 11.2 35.2 43.8 60.6 82.4 61.4-30.2 23.6-68.3 37.7-109.7 37.7-7.1 0-14.1-.4-21.1-1.3 38.8 25.2 85.4 39.9 135.2 39.9z" fill="#fff"/></svg>