<svg viewBox="300 0 100 80" xmlns="http://www.w3.org/2000/svg"><path d="m371.5 54.61c0 2.96-2.4 5.36-5.36 5.36s-5.36-2.4-5.36-5.36v-14.15s10.72 6.43 10.72 14.15zm6.57-2.35c-6.43-14.76-15.51-18.29-23.07-21.72v39.46m0-67v14.15c0 14.37 31.58 8.72 40 22.55m-6.18 4.14c-2.44-3.09-7.86-7.18-13.95-7.61 2.93 2.93 7.52 7.7 8.62 11.71m-78.49-1.24c2.25-6.58 19.14-6.39 27.11-9.91 6.5-2.87 12.89-6.57 12.89-14.03 0-4.29 0-12.77 0-12.77m0 67.01v-35.39h.01c-4.21 5.42-17.69 11.02-11.12 26.97m-7.54-5.7c-1.86-8.03 2.16-12.42 5.76-18.03-3.01 0-15.44.23-21.15 5.95"/></svg>