<svg enable-background="new 0 0 100 100" viewBox="0 0 100 100" xmlns="http://www.w3.org/2000/svg"><path d="m48.4 5h-16.4c-7.1 0-12.9 5.8-12.9 12.9s5.8 12.9 12.9 12.9h16.3v-25.8" fill="#414042"/><path d="m51.6 30.8h16.4c7.1 0 12.9-5.8 12.9-12.9s-5.8-12.9-12.9-12.9h-16.4z" fill="#009ade"/><path d="m48.4 69.2h-16.4c-7.1 0-12.9 5.8-12.9 12.9s5.8 12.9 12.9 12.9h16.3v-25.8" fill="#414042"/><path d="m51.6 95h16.4c7.1 0 12.9-5.8 12.9-12.9s-5.8-12.9-12.9-12.9h-16.4z" fill="#009ade"/><path d="m51.6 37.1h16.4c7.1 0 12.9 5.8 12.9 12.9s-5.8 12.9-12.9 12.9h-16.4z" fill="#414042"/><path d="m48.4 62.9h-16.4c-7.1 0-12.9-5.8-12.9-12.9s5.8-12.9 12.9-12.9h16.3v25.8" fill="#009ade"/></svg>