<?xml version="1.0" encoding="UTF-8"?><svg id="a" xmlns="http://www.w3.org/2000/svg" xmlns:xlink="http://www.w3.org/1999/xlink" viewBox="0 0 200 200"><defs><style>.k{fill:url(#d);}.l{fill:url(#c);}.m{fill:url(#b);}.n{fill:#f8a723;}.o{fill:#f27576;}.p,.q{fill:#fff;}.r{fill:#009ade;}.s{fill:#2eb467;}.t{fill:#414042;}.q,.u,.v{stroke-linejoin:round;}.q,.u,.v,.w,.x,.y{stroke-linecap:round;stroke-width:2px;}.q,.v,.y{stroke:#414042;}.u,.v,.w,.x,.y{fill:none;}.u,.w{stroke:#009ade;}.w,.x,.y{stroke-miterlimit:10;}.x{stroke:#656466;}</style><linearGradient id="b" x1="4.42" y1="100" x2="191.4" y2="100" gradientTransform="matrix(1, 0, 0, 1, 0, 0)" gradientUnits="userSpaceOnUse"><stop offset="0" stop-color="#71c8ee"/><stop offset="1" stop-color="#e1f5fe"/></linearGradient><linearGradient id="c" x1="77.94" y1="164.99" x2="77.94" y2="15.44" gradientTransform="matrix(1, 0, 0, 1, 0, 0)" gradientUnits="userSpaceOnUse"><stop offset="0" stop-color="#71c8ee"/><stop offset="1" stop-color="#007db3"/></linearGradient><linearGradient id="d" x1="92.95" y1="77.46" x2="160.52" y2="77.46" gradientTransform="matrix(1, 0, 0, 1, 0, 0)" gradientUnits="userSpaceOnUse"><stop offset="0" stop-color="#009ade"/><stop offset="1" stop-color="#71c8ee"/></linearGradient></defs><path class="m" d="M97.91,190.27C56.73,161.09,7.91,111.66,4.63,69.41,.17,12.01,69.01-9.46,97.91,29.43c28.9-38.9,97.73-17.42,93.28,39.98-3.28,42.25-52.1,91.68-93.28,120.86Z"/><path class="l" d="M66.94,164.99c-.36,0-.7-.19-.88-.53-5.07-9.48-7.97-18.47-8.61-26.69-.91-11.54,1.96-22.08,8.29-30.46,.9-1.19,2.19-2.01,3.64-2.31,2.14-.44,4.42-.7,6.77-.77,2.36-.07,4.36-2.14,4.36-4.52V60.78l12.98-4.65c1.41-.5,2.47-1.62,2.91-3.05,.44-1.43,.19-2.95-.69-4.16l-20.07-22.92,.66-.66c.94-.94,3.24-4.52,3.98-9.06,.09-.55,.6-.91,1.15-.83,.54,.09,.92,.6,.83,1.15-.66,4.01-2.51,7.62-3.92,9.44l18.93,21.63c1.31,1.8,1.67,3.95,1.04,5.99-.63,2.04-2.14,3.62-4.15,4.34l-11.66,4.18v37.52c0,3.49-2.83,6.42-6.3,6.52-2.24,.07-4.4,.31-6.43,.73-.97,.2-1.84,.75-2.45,1.55-6.03,7.99-8.76,18.05-7.9,29.1,.62,7.95,3.45,16.67,8.38,25.91,.26,.49,.08,1.09-.41,1.35-.15,.08-.31,.12-.47,.12Z"/><path class="k" d="M159.52,76.46h-55.11c-1.21-1.57-5-2.64-7.15-2.64-1.2,0-2.18,.26-2.91,.76-.64,.44-1.41,1.3-1.41,2.88s.77,2.43,1.41,2.88c.73,.5,1.71,.76,2.91,.76,2.15,0,5.94-1.07,7.15-2.64h55.11c.55,0,1-.45,1-1s-.45-1-1-1Z"/><g id="e"><path id="f" class="p" d="M171.53,37.6V106.59c0,6.64,5.38,12.02,12.02,12.02,6.64,0,12.02-5.38,12.02-12.02V37.6h-24.05Z"/><path id="g" class="y" d="M175.79,37.6h-4.25V106.59c0,6.64,5.38,12.02,12.02,12.02,6.64,0,12.02-5.38,12.02-12.02V37.6h-4.25"/><g id="h"><line class="w" x1="176.05" y1="77.46" x2="185.5" y2="77.46"/><line class="w" x1="178.25" y1="64.51" x2="185.5" y2="64.51"/><line class="w" x1="176.05" y1="45.09" x2="185.5" y2="45.09"/><path class="w" d="M175.79,106.59c0-5.29,2.06-10.59,6.18-14.62l.8-.78,.8-.78-.8-.78-.8-.78c-4.12-4.04-6.18-9.33-6.18-14.62,0-5.29,2.06-10.59,6.18-14.62l.8-.78,.8-.78-.8-.78-.8-.78c-4.12-4.04-6.18-9.33-6.18-14.62"/><line class="w" x1="181.61" y1="83.93" x2="188.86" y2="83.93"/><line class="w" x1="181.61" y1="70.98" x2="191.07" y2="70.98"/><line class="w" x1="181.61" y1="51.56" x2="188.86" y2="51.56"/><path class="w" d="M191.32,106.59c0-5.29-2.06-10.59-6.18-14.62l-.8-.78-.8-.78,.8-.78,.8-.78c4.12-4.04,6.18-9.33,6.18-14.62,0-5.29-2.06-10.59-6.18-14.62l-.8-.78-.8-.78,.8-.78,.8-.78c4.12-4.04,6.18-9.33,6.18-14.62"/><line class="w" x1="181.61" y1="103.35" x2="191.07" y2="103.35"/><line class="u" x1="178.26" y1="96.87" x2="184.86" y2="96.87"/></g></g><g id="i"><rect class="q" x="93.95" y="90.27" width="65.58" height="84.86"/><g><circle class="s" cx="148.16" cy="113" r="5.93"/><polyline class="v" points="151.3 110.91 147.13 115.08 145.03 112.99"/></g><g><circle class="n" cx="148.16" cy="126.13" r="5.93"/><line class="y" x1="145.79" y1="126.13" x2="150.54" y2="126.13"/></g><g><circle class="o" cx="148.16" cy="139.27" r="5.93"/><line class="y" x1="146.02" y1="137.12" x2="150.31" y2="141.42"/><line class="y" x1="146.02" y1="141.42" x2="150.31" y2="137.12"/></g><g><line class="x" x1="99.38" y1="113" x2="138" y2="113"/><line class="w" x1="106.88" y1="99.87" x2="154.09" y2="99.87"/><line class="x" x1="99.38" y1="126.13" x2="138" y2="126.13"/><line class="x" x1="99.38" y1="139.27" x2="138" y2="139.27"/><line class="w" x1="99.38" y1="165.54" x2="154.09" y2="165.54"/><line class="w" x1="99.38" y1="152.4" x2="154.09" y2="152.4"/><line class="w" x1="99.38" y1="158.97" x2="154.09" y2="158.97"/></g><g id="j"><path class="t" d="M100.84,95.76h-1.49c-.65,0-1.18,.53-1.18,1.18s.53,1.18,1.18,1.18h1.49v-2.36"/><path class="r" d="M101.13,98.12h1.49c.65,0,1.18-.53,1.18-1.18s-.53-1.18-1.18-1.18h-1.49v2.36"/><path class="t" d="M100.84,101.61h-1.49c-.65,0-1.18,.53-1.18,1.18s.53,1.18,1.18,1.18h1.49v-2.36"/><path class="r" d="M101.13,103.97h1.49c.65,0,1.18-.53,1.18-1.18s-.53-1.18-1.18-1.18h-1.49v2.36"/><path class="t" d="M101.13,98.69h1.49c.65,0,1.18,.53,1.18,1.18s-.53,1.18-1.18,1.18h-1.49v-2.36"/><path class="r" d="M100.84,101.04h-1.49c-.65,0-1.18-.53-1.18-1.18s.53-1.18,1.18-1.18h1.49v2.36"/></g></g></svg>