<?xml version="1.0" encoding="UTF-8"?><svg id="a" xmlns="http://www.w3.org/2000/svg" viewBox="0 0 200 200"><defs><style>.h,.i,.j,.k,.l,.m,.n,.o,.p,.q,.r{stroke-width:1.5px;}.h,.i,.j,.k,.n,.o,.p,.q,.r{stroke-linecap:round;}.h,.i,.j,.k,.p,.q,.r{fill:none;}.h,.j,.k,.l,.m{stroke-miterlimit:10;}.h,.m,.n,.p{stroke:#009ade;}.i,.k{stroke:#70c;}.i,.n,.o,.p,.q,.r{stroke-linejoin:round;}.j,.l,.o,.r{stroke:#414042;}.s{fill:#f8a723;}.t{fill:#f27576;}.u,.l,.n,.o{fill:#fff;}.v{fill:#009ade;}.w{fill:#2eb467;}.x{fill:#414042;}.y{fill:#70c;}.m{fill:#e1f5fe;}.q{stroke:#007db3;}</style></defs><g><path class="u" d="M100,73c-15.94-15.93-41.77-15.93-57.71,0-15.93,15.94-15.93,41.77,0,57.71l57.71,57.7,57.7-57.71c15.93-15.94,15.93-41.77,0-57.71-15.94-15.93-41.77-15.93-57.71,0Z"/><path class="q" d="M155.12,70.63c-15.15-12.78-37.4-12.77-52.55,0"/><path class="q" d="M167.32,115.49c3.11-8.8,3.11-18.46,0-27.26"/><line class="q" x1="141.05" y1="147.36" x2="144.65" y2="143.77"/><line class="q" x1="124.06" y1="164.36" x2="136.05" y2="152.36"/><polyline class="q" points="55.34 143.77 100 188.42 105.49 182.93"/></g><g id="b"><path class="u" d="M100.81,89.62c-.39-.39-1.02-.39-1.41,0-.62,.62-1.29,1.18-2,1.68l-15.06-15.06c.51-.71,1.06-1.38,1.68-2,.39-.39,.39-1.02,0-1.41-.39-.39-1.02-.39-1.41,0-4.58,4.58-6.4,11.35-5.11,19.05l.26,1.57-1.57-.26c-7.7-1.29-14.47,.53-19.05,5.11-4.58,4.58-6.4,11.35-5.11,19.05l.26,1.57-1.57-.26c-7.7-1.29-14.47,.53-19.05,5.11-.39,.39-.39,1.02,0,1.41,.2,.2,.45,.29,.71,.29s.51-.1,.71-.29c.62-.62,1.29-1.18,2-1.68l15.06,15.06c-.51,.71-1.06,1.38-1.68,2-.39,.39-.39,1.02,0,1.41,.2,.2,.45,.29,.71,.29s.51-.1,.71-.29c4.58-4.58,6.4-11.35,5.11-19.05l-.26-1.57,1.57,.26c7.7,1.29,14.47-.53,19.05-5.11,4.58-4.58,6.4-11.35,5.11-19.05l-.26-1.57,1.57,.26c7.7,1.29,14.47-.53,19.05-5.11,.39-.39,.39-1.02,0-1.41Z"/><line class="k" x1="55.58" y1="101.84" x2="65.79" y2="112.05"/><line class="k" x1="68.15" y1="94.03" x2="75.98" y2="101.86"/><line class="k" x1="81.05" y1="76.36" x2="91.26" y2="86.58"/><path class="k" d="M32.38,124.48c4.16-4.16,10.55-6.11,18.18-4.83l1.48,.25,1.48,.25-.25-1.48-.25-1.48c-1.27-7.62,.67-14.01,4.83-18.18,4.16-4.16,10.55-6.11,18.18-4.83l1.48,.25,1.48,.25-.25-1.48-.25-1.48c-1.27-7.62,.67-14.01,4.83-18.18"/><line class="k" x1="56.5" y1="112.94" x2="64.33" y2="120.78"/><line class="k" x1="66.69" y1="102.76" x2="76.9" y2="112.97"/><line class="k" x1="81.97" y1="87.47" x2="89.8" y2="95.31"/><path class="k" d="M49.17,141.27c4.16-4.16,6.1-10.55,4.83-18.18l-.25-1.48-.25-1.48,1.48,.25,1.48,.25c7.62,1.27,14.01-.67,18.18-4.83,4.16-4.16,6.1-10.55,4.83-18.18l-.25-1.48-.25-1.48,1.48,.25,1.48,.25c7.62,1.27,14.01-.67,18.18-4.83"/><line class="k" x1="41.22" y1="128.23" x2="51.43" y2="138.44"/><line class="i" x1="42.69" y1="119.5" x2="49.83" y2="126.63"/><path class="y" d="M105,73.13c0-.55,.45-1,1-1h0c.55,0,1,.45,1,1h0c0,.55-.45,1-1,1h0c-.55,0-1-.45-1-1Zm-6,0c0-.55,.45-1,1-1h0c.55,0,1,.45,1,1h0c0,.55-.45,1-1,1h0c-.55,0-1-.45-1-1Zm-6,0c0-.55,.45-1,1-1h0c.55,0,1,.45,1,1h0c0,.55-.45,1-1,1h0c-.55,0-1-.45-1-1Zm-6,0c0-.55,.45-1,1-1h0c.55,0,1,.45,1,1h0c0,.55-.45,1-1,1h0c-.55,0-1-.45-1-1Z"/><path class="y" d="M105.12,141.26c0-.55,.45-1,1-1h0c.55,0,1,.45,1,1h0c0,.56-.45,1-1,1h0c-.55,0-1-.44-1-1Zm-6,0c0-.55,.45-1,1-1h0c.55,0,1,.45,1,1h0c0,.56-.45,1-1,1h0c-.55,0-1-.44-1-1Zm-6,0c0-.55,.45-1,1-1h0c.55,0,1,.45,1,1h0c0,.56-.45,1-1,1h0c-.55,0-1-.44-1-1Zm-6,0c0-.55,.45-1,1-1h0c.55,0,1,.45,1,1h0c0,.56-.45,1-1,1h0c-.55,0-1-.44-1-1Zm-6,0c0-.55,.45-1,1-1h0c.55,0,1,.45,1,1h0c0,.56-.45,1-1,1h0c-.55,0-1-.44-1-1Zm-6,0c0-.55,.45-1,1-1h0c.55,0,1,.45,1,1h0c0,.56-.45,1-1,1h0c-.55,0-1-.44-1-1Zm-6,0c0-.55,.45-1,1-1h0c.55,0,1,.45,1,1h0c0,.56-.45,1-1,1h0c-.55,0-1-.44-1-1Zm-6,0c0-.55,.45-1,1-1h0c.55,0,1,.45,1,1h0c0,.56-.45,1-1,1h0c-.55,0-1-.44-1-1Zm-6,0c0-.55,.45-1,1-1h0c.55,0,1,.45,1,1h0c0,.56-.45,1-1,1h0c-.55,0-1-.44-1-1Z"/></g><g id="c"><path id="d" class="o" d="M86.27,21.21l-2.97-2.97-48.16,48.18c-4.64,4.64-4.63,12.15,0,16.79s12.15,4.63,16.79,0l48.16-48.18-2.97-2.97"/><g><line class="p" x1="69.51" y1="48.83" x2="106.74" y2="11.58"/><path class="n" d="M58.76,59.58c-3.86-3.86,9.15-12.35,10.74-10.75,1.6,1.6-6.88,14.61-10.74,10.75Z"/></g><g><path class="v" d="M99.11,67.16c0-.55,.44-1,1-1h0c.55,0,1,.45,1,1h0c0,.55-.45,1-1,1h0c-.56,0-1-.45-1-1Zm0-6c0-.55,.44-1,1-1h0c.55,0,1,.45,1,1h0c0,.55-.45,1-1,1h0c-.56,0-1-.45-1-1Zm0-6c0-.55,.44-1,1-1h0c.55,0,1,.45,1,1h0c0,.55-.45,1-1,1h0c-.56,0-1-.45-1-1Zm0-6c0-.55,.44-1,1-1h0c.55,0,1,.45,1,1h0c0,.55-.45,1-1,1h0c-.56,0-1-.45-1-1Zm0-6c0-.55,.44-1,1-1h0c.55,0,1,.45,1,1h0c0,.55-.45,1-1,1h0c-.56,0-1-.45-1-1Z"/><path class="v" d="M99.1,85.44c0-.55,.45-1,1-1h0c.56,0,1,.45,1,1h0c0,.55-.44,1-1,1h0c-.55,0-1-.45-1-1Zm0-6c0-.55,.45-1,1-1h0c.56,0,1,.45,1,1h0c0,.55-.44,1-1,1h0c-.55,0-1-.45-1-1Z"/></g><path class="v" d="M31.37,117.36c0-.55,.45-1,1-1h0c.56,0,1,.45,1,1h0c0,.55-.44,1-1,1h0c-.55,0-1-.45-1-1Zm0-6c0-.55,.45-1,1-1h0c.56,0,1,.45,1,1h0c0,.55-.44,1-1,1h0c-.55,0-1-.45-1-1Zm0-6c0-.55,.45-1,1-1h0c.56,0,1,.45,1,1h0c0,.55-.44,1-1,1h0c-.55,0-1-.45-1-1Zm0-6c0-.55,.45-1,1-1h0c.56,0,1,.45,1,1h0c0,.55-.44,1-1,1h0c-.55,0-1-.45-1-1Zm0-6c0-.55,.45-1,1-1h0c.56,0,1,.45,1,1h0c0,.55-.44,1-1,1h0c-.55,0-1-.45-1-1Zm0-6c0-.55,.45-1,1-1h0c.56,0,1,.45,1,1h0c0,.55-.44,1-1,1h0c-.55,0-1-.45-1-1Z"/><path class="v" d="M39.53,78.82c-.39-.39-.39-1.02,0-1.41h0c.39-.4,1.02-.4,1.41,0h0c.4,.39,.4,1.02,0,1.41h0c-.19,.2-.45,.29-.7,.29h0c-.26,0-.51-.09-.71-.29Zm4.24-4.24c-.39-.39-.39-1.03,0-1.42h0c.39-.39,1.03-.39,1.42,0h0c.39,.39,.39,1.03,0,1.42h0c-.2,.19-.45,.29-.71,.29h0c-.26,0-.51-.1-.71-.29Zm4.25-4.25c-.4-.39-.4-1.02,0-1.41h0c.39-.39,1.02-.39,1.41,0h0c.39,.39,.39,1.02,0,1.41h0c-.2,.2-.45,.3-.71,.3h0c-.25,0-.51-.1-.7-.3Zm4.24-4.24c-.39-.39-.39-1.02,0-1.41h0c.39-.39,1.02-.39,1.41,0h0c.39,.38,.39,1.02,0,1.41h0c-.19,.19-.45,.29-.71,.29h0c-.25,0-.51-.1-.7-.29Z"/></g><g id="e"><rect class="o" x="112.17" y="73.14" width="52.64" height="68.12"/><g><circle class="w" cx="155.69" cy="91.38" r="4.76"/><polyline class="r" points="158.21 89.71 154.86 93.06 153.18 91.37"/></g><g><circle class="s" cx="155.69" cy="101.93" r="4.76"/><line class="j" x1="153.79" y1="101.93" x2="157.6" y2="101.92"/></g><g><circle class="t" cx="155.7" cy="112.47" r="4.76"/><line class="j" x1="153.97" y1="110.74" x2="157.42" y2="114.19"/><line class="j" x1="153.97" y1="114.19" x2="157.42" y2="110.74"/></g><g><line class="j" x1="116.53" y1="91.39" x2="147.53" y2="91.38"/><line class="h" x1="122.55" y1="80.84" x2="160.45" y2="80.84"/><line class="j" x1="116.53" y1="101.93" x2="147.54" y2="101.93"/><line class="j" x1="116.53" y1="112.48" x2="147.54" y2="112.47"/><line class="h" x1="116.54" y1="133.56" x2="160.46" y2="133.55"/><line class="h" x1="116.53" y1="123.02" x2="160.46" y2="123.01"/><line class="h" x1="116.53" y1="128.29" x2="160.46" y2="128.28"/></g><g id="f"><path class="x" d="M117.7,77.55h-1.2c-.52,0-.95,.42-.95,.95s.42,.95,.95,.95h1.2v-1.89"/><path class="v" d="M117.94,79.44h1.2c.52,0,.95-.42,.95-.95s-.42-.95-.95-.95h-1.2v1.89"/><path class="x" d="M117.7,82.25h-1.2c-.52,0-.95,.42-.95,.95s.42,.95,.95,.95h1.2v-1.89"/><path class="v" d="M117.94,84.14h1.2c.52,0,.95-.42,.95-.95s-.42-.95-.95-.95h-1.2v1.89"/><path class="x" d="M117.94,79.9h1.2c.52,0,.95,.42,.95,.95s-.42,.95-.95,.95h-1.2v-1.89"/><path class="v" d="M117.7,81.79h-1.2c-.52,0-.95-.42-.95-.95s.42-.95,.95-.95h1.2v1.89"/></g><path class="x" d="M137.5,158.36c0-.55,.45-1,1-1h0c.55,0,1,.45,1,1h0c0,.56-.45,1-1,1h0c-.55,0-1-.44-1-1Zm0,6.5c0-.55,.45-1,1-1h0c.55,0,1,.45,1,1h0c0,.56-.45,1-1,1h0c-.55,0-1-.44-1-1Zm0,6.5c0-.55,.45-1,1-1h0c.55,0,1,.45,1,1h0c0,.56-.45,1-1,1h0c-.55,0-1-.44-1-1Zm0-18.99c0-.55,.45-1,1-1h0c.55,0,1,.45,1,1h0c0,.56-.45,1-1,1h0c-.55,0-1-.44-1-1Zm0-5.99c0-.56,.45-1.01,1-1.01h0c.55,0,1,.45,1,1.01h0c0,.55-.45,.99-1,.99h0c-.55,0-1-.44-1-.99Z"/></g><g id="g"><g><path class="l" d="M93.22,162.24v9.2c0,3.76,3.05,6.82,6.79,6.82s6.78-3.06,6.77-6.82v-9.2h-13.56Z"/><path class="m" d="M93.22,162.24c0,.85,3.04,1.54,6.78,1.54,3.74,0,6.78-.69,6.78-1.55v-7.66c0-3.76-3.05-6.82-6.79-6.82s-6.78,3.06-6.77,6.82v7.66Z"/></g><g><path class="l" d="M118.71,166.87h-9.2c-3.76,0-6.82,3.05-6.82,6.79,0,3.74,3.06,6.77,6.83,6.77h9.2v-13.56Z"/><path class="m" d="M118.71,166.87c-.85,0-1.54,3.04-1.54,6.78s.7,6.78,1.55,6.78h7.66c3.76,0,6.82-3.05,6.82-6.79s-3.06-6.77-6.83-6.77h-7.66Z"/></g></g></svg>