<?xml version="1.0" encoding="UTF-8"?><svg xmlns="http://www.w3.org/2000/svg" viewBox="0 0 200 200"><defs><style>.h,.i,.j,.k,.l,.m,.n,.o,.p,.q,.r{stroke-width:1.5px;}.h,.i,.j,.k,.n,.o,.p,.q,.r{stroke-linecap:round;}.h,.i,.j,.k,.p,.q,.r{fill:none;}.h,.j,.k,.l,.m{stroke-miterlimit:10;}.h,.m,.n,.p{stroke:#009ade;}.i,.k{stroke:#70c;}.i,.n,.o,.p,.q,.r{stroke-linejoin:round;}.j,.l,.o,.r{stroke:#414042;}.s{fill:#f8a723;}.t{fill:#f27576;}.u,.l,.n,.o{fill:#fff;}.v{fill:#009ade;}.w{fill:#2eb467;}.x{fill:#414042;}.y{fill:#70c;}.m{fill:#e1f5fe;}.q{stroke:#007db3;}</style></defs><g id="a"><g><path class="u" d="M161.21,148.96s.03-.07,.05-.1c11.01-13.29,16.42-28.21,16.42-45.07,0-29.43-14.88-41.43-25.76-46.27-.06-.03-.12-.06-.18-.08-.06-.03-.12-.05-.19-.08-2.44-1.06-4.67-1.76-6.46-2.21-16.11-4.1-33.84,.76-40.64,10.87-6.8-10.1-24.53-14.96-40.64-10.87-1.79,.46-4.02,1.16-6.46,2.21-.06,.03-.12,.05-.19,.08-.06,.03-.12,.06-.18,.08-10.88,4.84-25.76,16.83-25.76,46.27,0,16.87,5.42,31.78,16.42,45.07,.02,.03,.03,.07,.05,.1,.27,.33,.56,.63,.83,.96,.16,.19,.33,.38,.5,.57,1.63,1.88,3.33,3.67,5.08,5.38l.02,.02c1.92,1.87,3.9,3.65,5.91,5.33,.11,.09,.21,.18,.31,.26,.59,.49,1.18,.97,1.77,1.44,.3,.24,.61,.48,.91,.72,.49,.38,.98,.77,1.47,1.14,.62,.47,1.25,.94,1.89,1.4,.2,.15,.41,.3,.61,.45,1.65,1.19,3.36,2.37,5.12,3.54,.02,.01,.04,.02,.06,.03,6.01,3.96,11.84,7.23,16.83,9.95h0l2.11,1.16c6.31,3.43,11.29,6.14,12.46,8.05,.18,.3,.5,.48,.85,.48h0c.35,0,.67-.18,.85-.48,1.18-1.91,6.16-4.62,12.46-8.05l2.11-1.15h0c4.99-2.73,10.82-6,16.83-9.95,.02-.01,.04-.02,.06-.03,1.77-1.16,3.47-2.34,5.12-3.54,.2-.15,.41-.3,.61-.45,.64-.47,1.27-.93,1.89-1.4,.49-.37,.98-.76,1.47-1.14,.3-.24,.61-.48,.91-.72,.59-.47,1.18-.95,1.77-1.44,.11-.09,.21-.18,.31-.26,2.01-1.68,3.99-3.46,5.91-5.33l.02-.02c1.75-1.71,3.45-3.5,5.08-5.38,.17-.19,.33-.38,.5-.57,.27-.32,.56-.63,.83-.96Z"/><path class="q" d="M136.22,169.35c19.42-12.79,40.45-32.78,40.45-65.54,0-58.7-60.99-56.52-72.23-35.85"/><path class="q" d="M48.46,148.34c20.13,24.3,52.26,34.47,55.98,40.5,1.45-2.35,7.24-5.34,14.95-9.55"/></g><g id="b"><path class="u" d="M92.77,89.19c-.39-.39-1.02-.39-1.41,0-.62,.62-1.29,1.18-2,1.68l-15.06-15.06c.51-.71,1.06-1.38,1.68-2,.39-.39,.39-1.02,0-1.41-.39-.39-1.02-.39-1.41,0-4.58,4.58-6.4,11.35-5.11,19.05l.26,1.57-1.57-.26c-7.7-1.29-14.47,.53-19.05,5.11-4.58,4.58-6.4,11.35-5.11,19.05l.26,1.57-1.57-.26c-7.7-1.29-14.47,.53-19.05,5.11-.39,.39-.39,1.02,0,1.41,.2,.2,.45,.29,.71,.29s.51-.1,.71-.29c.62-.62,1.29-1.18,2-1.68l15.06,15.06c-.51,.71-1.06,1.38-1.68,2-.39,.39-.39,1.02,0,1.41,.2,.2,.45,.29,.71,.29s.51-.1,.71-.29c4.58-4.58,6.4-11.35,5.11-19.05l-.26-1.57,1.57,.26c7.7,1.29,14.47-.53,19.05-5.11,4.58-4.58,6.4-11.35,5.11-19.05l-.26-1.57,1.57,.26c7.7,1.29,14.47-.53,19.05-5.11,.39-.39,.39-1.02,0-1.41Z"/><line class="k" x1="47.54" y1="101.41" x2="57.75" y2="111.62"/><line class="k" x1="60.11" y1="93.6" x2="67.94" y2="101.44"/><line class="k" x1="73.01" y1="75.94" x2="83.22" y2="86.15"/><path class="k" d="M24.34,124.06c4.16-4.16,10.55-6.11,18.18-4.83l1.48,.25,1.48,.25-.25-1.48-.25-1.48c-1.27-7.62,.67-14.01,4.83-18.18,4.16-4.16,10.55-6.11,18.18-4.83l1.48,.25,1.48,.25-.25-1.48-.25-1.48c-1.27-7.62,.67-14.01,4.83-18.18"/><line class="k" x1="48.46" y1="112.52" x2="56.29" y2="120.35"/><line class="k" x1="58.65" y1="102.33" x2="68.86" y2="112.55"/><line class="k" x1="73.93" y1="87.05" x2="81.76" y2="94.88"/><path class="k" d="M41.13,140.84c4.16-4.16,6.1-10.55,4.83-18.18l-.25-1.48-.25-1.48,1.48,.25,1.48,.25c7.62,1.27,14.01-.67,18.18-4.83,4.16-4.16,6.1-10.55,4.83-18.18l-.25-1.48-.25-1.48,1.48,.25,1.48,.25c7.62,1.27,14.01-.67,18.18-4.83"/><line class="k" x1="33.18" y1="127.8" x2="43.39" y2="138.02"/><line class="i" x1="34.65" y1="119.07" x2="41.79" y2="126.2"/></g><g id="c"><rect class="o" x="104.13" y="72.71" width="52.64" height="68.12"/><g><circle class="w" cx="147.65" cy="90.96" r="4.76"/><polyline class="r" points="150.17 89.28 146.82 92.63 145.14 90.95"/></g><g><circle class="s" cx="147.65" cy="101.5" r="4.76"/><line class="j" x1="145.75" y1="101.5" x2="149.56" y2="101.5"/></g><g><circle class="t" cx="147.66" cy="112.04" r="4.76"/><line class="j" x1="145.93" y1="110.32" x2="149.38" y2="113.77"/><line class="j" x1="145.93" y1="113.77" x2="149.38" y2="110.32"/></g><g><line class="j" x1="108.49" y1="90.97" x2="139.49" y2="90.96"/><line class="h" x1="114.51" y1="80.42" x2="152.41" y2="80.41"/><line class="j" x1="108.49" y1="101.51" x2="139.5" y2="101.5"/><line class="j" x1="108.49" y1="112.05" x2="139.5" y2="112.05"/><line class="h" x1="108.5" y1="133.14" x2="152.42" y2="133.13"/><line class="h" x1="108.49" y1="122.6" x2="152.42" y2="122.59"/><line class="h" x1="108.49" y1="127.87" x2="152.42" y2="127.86"/></g><g id="d"><path class="x" d="M109.66,77.13h-1.2c-.52,0-.95,.42-.95,.95s.42,.95,.95,.95h1.2v-1.89"/><path class="v" d="M109.9,79.02h1.2c.52,0,.95-.42,.95-.95s-.42-.95-.95-.95h-1.2v1.89"/><path class="x" d="M109.66,81.83h-1.2c-.52,0-.95,.42-.95,.95s.42,.95,.95,.95h1.2v-1.89"/><path class="v" d="M109.9,83.72h1.2c.52,0,.95-.42,.95-.95s-.42-.95-.95-.95h-1.2v1.89"/><path class="x" d="M109.9,79.48h1.2c.52,0,.95,.42,.95,.95s-.42,.95-.95,.95h-1.2v-1.89"/><path class="v" d="M109.66,81.37h-1.2c-.52,0-.95-.42-.95-.95s.42-.95,.95-.95h1.2v1.89"/></g></g><g id="e"><path id="f" class="o" d="M78.23,20.79l-2.97-2.97L27.1,66c-4.64,4.64-4.63,12.15,0,16.79s12.15,4.63,16.79,0l48.16-48.18-2.97-2.97"/><g><line class="p" x1="61.47" y1="48.41" x2="98.7" y2="11.16"/><path class="n" d="M50.72,59.16c-3.86-3.86,9.15-12.35,10.74-10.75,1.6,1.6-6.88,14.61-10.74,10.75Z"/></g></g><g><path class="v" d="M91.07,66.74c0-.55,.44-1,1-1h0c.55,0,1,.45,1,1h0c0,.55-.45,1-1,1h0c-.56,0-1-.45-1-1Zm0-6c0-.55,.44-1,1-1h0c.55,0,1,.45,1,1h0c0,.55-.45,1-1,1h0c-.56,0-1-.45-1-1Zm0-6c0-.55,.44-1,1-1h0c.55,0,1,.45,1,1h0c0,.55-.45,1-1,1h0c-.56,0-1-.45-1-1Zm0-6c0-.55,.44-1,1-1h0c.55,0,1,.45,1,1h0c0,.55-.45,1-1,1h0c-.56,0-1-.45-1-1Zm0-6c0-.55,.44-1,1-1h0c.55,0,1,.45,1,1h0c0,.55-.45,1-1,1h0c-.56,0-1-.45-1-1Z"/><path class="v" d="M91.06,85.02c0-.55,.45-1,1-1h0c.56,0,1,.45,1,1h0c0,.55-.44,1-1,1h0c-.55,0-1-.45-1-1Zm0-6c0-.55,.45-1,1-1h0c.56,0,1,.45,1,1h0c0,.55-.44,1-1,1h0c-.55,0-1-.45-1-1Z"/></g><path class="v" d="M23.33,116.94c0-.55,.45-1,1-1h0c.56,0,1,.45,1,1h0c0,.55-.44,1-1,1h0c-.55,0-1-.45-1-1Zm0-6c0-.55,.45-1,1-1h0c.56,0,1,.45,1,1h0c0,.55-.44,1-1,1h0c-.55,0-1-.45-1-1Zm0-6c0-.55,.45-1,1-1h0c.56,0,1,.45,1,1h0c0,.55-.44,1-1,1h0c-.55,0-1-.45-1-1Zm0-6c0-.55,.45-1,1-1h0c.56,0,1,.45,1,1h0c0,.55-.44,1-1,1h0c-.55,0-1-.45-1-1Zm0-6c0-.55,.45-1,1-1h0c.56,0,1,.45,1,1h0c0,.55-.44,1-1,1h0c-.55,0-1-.45-1-1Zm0-6c0-.55,.45-1,1-1h0c.56,0,1,.45,1,1h0c0,.55-.44,1-1,1h0c-.55,0-1-.45-1-1Z"/><path class="y" d="M96.96,72.71c0-.55,.45-1,1-1h0c.55,0,1,.45,1,1h0c0,.55-.45,1-1,1h0c-.55,0-1-.45-1-1Zm-6,0c0-.55,.45-1,1-1h0c.55,0,1,.45,1,1h0c0,.55-.45,1-1,1h0c-.55,0-1-.45-1-1Zm-6,0c0-.55,.45-1,1-1h0c.55,0,1,.45,1,1h0c0,.55-.45,1-1,1h0c-.55,0-1-.45-1-1Zm-6,0c0-.55,.45-1,1-1h0c.55,0,1,.45,1,1h0c0,.55-.45,1-1,1h0c-.55,0-1-.45-1-1Z"/><path class="y" d="M97.08,140.84c0-.55,.45-1,1-1h0c.55,0,1,.45,1,1h0c0,.56-.45,1-1,1h0c-.55,0-1-.44-1-1Zm-6,0c0-.55,.45-1,1-1h0c.55,0,1,.45,1,1h0c0,.56-.45,1-1,1h0c-.55,0-1-.44-1-1Zm-6,0c0-.55,.45-1,1-1h0c.55,0,1,.45,1,1h0c0,.56-.45,1-1,1h0c-.55,0-1-.44-1-1Zm-6,0c0-.55,.45-1,1-1h0c.55,0,1,.45,1,1h0c0,.56-.45,1-1,1h0c-.55,0-1-.44-1-1Zm-6,0c0-.55,.45-1,1-1h0c.55,0,1,.45,1,1h0c0,.56-.45,1-1,1h0c-.55,0-1-.44-1-1Zm-6,0c0-.55,.45-1,1-1h0c.55,0,1,.45,1,1h0c0,.56-.45,1-1,1h0c-.55,0-1-.44-1-1Zm-6,0c0-.55,.45-1,1-1h0c.55,0,1,.45,1,1h0c0,.56-.45,1-1,1h0c-.55,0-1-.44-1-1Zm-6,0c0-.55,.45-1,1-1h0c.55,0,1,.45,1,1h0c0,.56-.45,1-1,1h0c-.55,0-1-.44-1-1Zm-6,0c0-.55,.45-1,1-1h0c.55,0,1,.45,1,1h0c0,.56-.45,1-1,1h0c-.55,0-1-.44-1-1Z"/><g><g><path class="l" d="M97.13,153.33l-5.76,5.76c-2.35,2.35-2.36,6.17-.02,8.51s6.16,2.32,8.51-.03l5.76-5.76-8.49-8.48Z"/><path class="m" d="M97.13,153.33c-.53,.53,.93,2.87,3.28,5.21,2.34,2.34,4.68,3.81,5.21,3.27l4.79-4.79c2.35-2.35,2.36-6.17,.02-8.51s-6.16-2.32-8.51,.03l-4.79,4.79Z"/></g><g><path class="l" d="M118.1,162.59h-8.14c-3.33,0-6.04,2.7-6.03,6.01,0,3.31,2.71,6,6.04,5.99h8.14v-12Z"/><path class="m" d="M118.1,162.59c-.76,0-1.37,2.69-1.36,6,0,3.31,.62,6,1.37,6h6.78c3.33,0,6.04-2.7,6.03-6.01,0-3.31-2.71-6-6.04-5.99h-6.78Z"/></g></g><path class="x" d="M129.46,158.34c0-.55,.45-1,1-1h0c.55,0,1,.45,1,1h0c0,.56-.45,1-1,1h0c-.55,0-1-.44-1-1Zm0-6c0-.55,.45-1,1-1h0c.55,0,1,.45,1,1h0c0,.56-.45,1-1,1h0c-.55,0-1-.44-1-1Zm0-5.99c0-.56,.45-1.01,1-1.01h0c.55,0,1,.45,1,1.01h0c0,.55-.45,.99-1,.99h0c-.55,0-1-.44-1-.99Z"/><path class="v" d="M31.49,78.4c-.39-.39-.39-1.02,0-1.41h0c.39-.4,1.02-.4,1.41,0h0c.4,.39,.4,1.02,0,1.41h0c-.19,.2-.45,.29-.7,.29h0c-.26,0-.51-.09-.71-.29Zm4.24-4.24c-.39-.39-.39-1.03,0-1.42h0c.39-.39,1.03-.39,1.42,0h0c.39,.39,.39,1.03,0,1.42h0c-.2,.19-.45,.29-.71,.29h0c-.26,0-.51-.1-.71-.29Zm4.25-4.25c-.4-.39-.4-1.02,0-1.41h0c.39-.39,1.02-.39,1.41,0h0c.39,.39,.39,1.02,0,1.41h0c-.2,.2-.45,.3-.71,.3h0c-.25,0-.51-.1-.7-.3Zm4.24-4.24c-.39-.39-.39-1.02,0-1.41h0c.39-.39,1.02-.39,1.41,0h0c.39,.38,.39,1.02,0,1.41h0c-.19,.19-.45,.29-.71,.29h0c-.25,0-.51-.1-.7-.29Z"/></g><g id="g"/></svg>