<?xml version="1.0" encoding="utf-8"?>
<!-- Generator: Adobe Illustrator 25.1.0, SVG Export Plug-In . SVG Version: 6.00 Build 0)  -->
<svg version="1.1" id="Layer_2" xmlns="http://www.w3.org/2000/svg" xmlns:xlink="http://www.w3.org/1999/xlink" x="0px" y="0px"
	 viewBox="0 0 60 80" style="enable-background:new 0 0 60 80;" xml:space="preserve">
<style type="text/css">
	.st0{fill:#929292;}
	.st1{fill:url(#Shadow_2_);}
	.st2{fill:#333333;}
</style>
<path id="Body" d="M52.2,5H7.8C6.1,5,4.8,6.4,4.8,8.1v63.9c0,1.7,1.4,3.1,3.1,3.1h44.3c1.7,0,3.1-1.4,3.1-3.1V8.1
	C55.2,6.4,53.9,5,52.2,5z M52.5,69.1h-45V10.9h45V69.1z"/>
<path id="Bezel" class="st0" d="M52.2,5.4c1.5,0,2.7,1.2,2.7,2.7v63.9c0,1.5-1.2,2.7-2.7,2.7H7.8c-1.5,0-2.7-1.2-2.7-2.7V8.1
	c0-1.5,1.2-2.7,2.7-2.7H52.2 M52.2,5H7.8C6.1,5,4.8,6.4,4.8,8.1v63.9c0,1.7,1.4,3.1,3.1,3.1h44.3c1.7,0,3.1-1.4,3.1-3.1V8.1
	C55.2,6.4,53.9,5,52.2,5L52.2,5z"/>
<linearGradient id="Shadow_2_" gradientUnits="userSpaceOnUse" x1="51.6456" y1="20.3544" x2="6.6298" y2="65.3702" gradientTransform="matrix(1 0 0 -1 0 82)">
	<stop offset="0" style="stop-color:#000000;stop-opacity:0"/>
	<stop offset="1" style="stop-color:#000000;stop-opacity:0"/>
</linearGradient>
<rect id="Shadow_1_" x="7.5" y="10.9" class="st1" width="45" height="58.2"/>
<circle id="Button" class="st2" cx="30" cy="71.9" r="1.7"/>
<circle id="Camera" class="st2" cx="30" cy="8.1" r="0.5"/>
</svg>
