<svg enable-background="new 0 0 100 50" viewBox="0 0 100 50" xmlns="http://www.w3.org/2000/svg"><path d="m22.94 39.19h-8.58c.39-1.26.84-2.4 1.53-3.69h-.1c-2.32 2.75-5.23 4.2-8.63 4.2-4.04 0-6.16-2.08-6.16-6.36 0-7.62 5.42-14.14 16.22-14.14 3.2 0 6.76.16 10.16.67-1.53 6.4-3.35 13.51-4.44 19.32zm-7.3-14.37c-3.35 0-5.52 4.16-5.52 7.15 0 1.02.2 1.53.94 1.53 1.87 0 5.28-4.4 6.06-7.66l.2-.83c-.49-.11-.99-.19-1.68-.19zm26.04-.08c-.89-.2-1.87-.31-2.71-.31-1.58 0-2.27.31-2.27.98 0 1.41 4.88 3.02 4.88 7.15 0 3.3-3.55 7.11-12.13 7.11-1.63 0-3.2-.16-4.44-.35l1.53-5.77c1.04.31 2.42.55 3.45.55 1.48 0 2.22-.35 2.22-.94 0-1.88-4.68-2.55-4.68-7.03 0-3.89 3.75-6.91 11.69-6.91 1.38 0 2.86.08 4.09.24zm22.68 14.45h-8.83l2.86-11.9c.34-1.45.15-1.92-.49-1.92-1.53 0-5.08 3.93-6.06 8.01l-1.38 5.81h-8.83l6.85-28.67h8.83l-1.63 6.91c-.49 2.04-1.43 4.12-2.51 5.93h.1c2.17-2.51 4.88-4.2 8.88-4.2 5.03 0 6.31 2.87 5.47 6.32zm12.52.47c-.34 0-.69 0-1.48-.08l-2.07 8.76h-8.83l4.63-19.36c.74-3.14 1.43-6.24 2.02-9.31h8.58c-.39 1.26-.84 2.4-1.53 3.69h.1c2.32-2.75 5.23-4.2 8.63-4.2 4.04 0 6.16 2.08 6.16 6.36.02 7.62-5.41 14.14-16.21 14.14zm6.17-14.29c-1.87 0-5.28 4.4-6.07 7.66l-.2.83c.49.12.99.2 1.68.2 3.35 0 5.52-4.16 5.52-7.15 0-1.03-.19-1.54-.93-1.54z" fill="#0075c9"/><path d="m91.26 16.03 7.74-14.37c-10.81 8.61-28.61 13.33-37.94 14.42 1.09 0 30.2-.05 30.2-.05z" fill="#ff8300"/><path d="m93.93 19.95v-.01c0-1.08.88-1.99 1.98-1.99 1.12 0 1.98.9 1.98 1.98v.01c0 1.08-.88 1.99-1.98 1.99-1.11 0-1.98-.9-1.98-1.98zm3.74-.01v-.01c0-.97-.75-1.77-1.75-1.77-.99 0-1.75.81-1.75 1.78v.01c0 .97.75 1.77 1.75 1.77.98-.01 1.75-.81 1.75-1.78zm-2.53-1.05h.91c.44 0 .77.22.77.64 0 .33-.19.54-.47.62l.54.76h-.47l-.48-.69h-.42v.69h-.39v-2.02zm.87 1c.26 0 .41-.14.41-.33 0-.22-.15-.33-.41-.33h-.49v.66z" fill="#232020"/></svg>