<svg enable-background="new 0 0 190 64" viewBox="0 0 190 64" xmlns="http://www.w3.org/2000/svg"><g clip-rule="evenodd" fill-rule="evenodd"><path d="m0 0h190v64h-190z" fill="#ab2224"/><path d="m12 30.3h1.39v-12.21l2.91 12.21h.43l2.89-12.21v12.21h1.56v-15.29h-2.12l-2.46 10.65-2.54-10.65h-2.06zm12.43 0h1.6v-15.29h-1.6zm4.87 0h1.45v-12.28l4.13 12.27h1.67v-15.28h-1.43v11.36l-3.87-11.36h-1.95zm10.4 0h1.45v-12.28l4.13 12.27h1.67v-15.28h-1.43v11.36l-3.87-11.36h-1.95zm10.4 0h6.14v-1.28h-4.53v-6.27h3.46v-1.28h-3.46v-5.18h4.26v-1.28h-5.87zm14.47 0h1.58l-2.69-15.29h-2.42l-2.72 15.29h1.52l.64-3.85h3.42zm-2.37-14.03 1.5 8.94h-3.02zm6.46 14.03h1.6v-6.82h1.41c2.35 0 3.72-1.22 3.72-3.55v-1.43c0-2.44-1.37-3.49-3.72-3.49h-3.02v15.29zm1.61-8.08v-5.94h1.5c1.33 0 2.03.56 2.03 2.22v1.43c0 1.58-.68 2.29-2.03 2.29zm11.53 8.27c2.44 0 4-1.6 4-4.45v-6.84c0-2.8-1.56-4.38-4-4.38s-4 1.58-4 4.41v6.86c0 2.8 1.57 4.4 4 4.4zm0-1.35c-1.63 0-2.37-1.09-2.37-3.08v-6.84c0-1.99.77-3.08 2.37-3.08 1.58 0 2.35 1.2 2.35 3.08v6.82c.01 1.93-.76 3.1-2.35 3.1zm7.03 1.16h5.77v-1.28h-4.17v-14.01h-1.6zm8.52 0h1.6v-15.29h-1.6zm7.98.19c2.01 0 3.36-1.18 3.36-3.7v-.32c0-2.48-1.01-3.44-2.99-4.92-1.63-1.22-2.2-1.88-2.2-3.4v-.09c0-1.28.62-1.92 1.71-1.92 1.07 0 1.75.53 1.75 2.07v.53h1.5v-.53c0-2.29-1.2-3.4-3.25-3.4-1.97 0-3.23 1.22-3.23 3.36v.06c0 2.16 1.01 3.23 2.76 4.55 1.67 1.28 2.42 1.97 2.42 3.76v.3c0 1.52-.66 2.31-1.82 2.31-1.41 0-2.01-.77-2.01-2.5v-.51h-1.54v.51c-.01 2.47 1.26 3.84 3.54 3.84zm5.04 2.65h1.39l4.68-19.12h-1.39zm11.58-2.65c2.01 0 3.36-1.18 3.36-3.7v-.32c0-2.48-1.01-3.44-2.99-4.92-1.63-1.22-2.2-1.88-2.2-3.4v-.09c0-1.28.62-1.92 1.71-1.92 1.07 0 1.75.53 1.75 2.07v.53h1.5v-.53c0-2.29-1.2-3.4-3.25-3.4-1.97 0-3.23 1.22-3.23 3.36v.06c0 2.16 1.01 3.23 2.76 4.55 1.67 1.28 2.42 1.97 2.42 3.76v.3c0 1.52-.66 2.31-1.82 2.31-1.41 0-2.01-.77-2.01-2.5v-.51h-1.54v.51c-.01 2.47 1.25 3.84 3.54 3.84zm7.86-.19h1.58l.02-14.01h2.65v-1.28h-6.89v1.28h2.63v14.01zm5.93.08c.6 0 1.07-.49 1.07-1.07 0-.62-.47-1.11-1.07-1.11-.58 0-1.09.49-1.09 1.11 0 .58.51 1.07 1.09 1.07zm7.87-.08h1.6v-6.82h1.41c2.35 0 3.72-1.22 3.72-3.55v-1.43c0-2.44-1.37-3.49-3.72-3.49h-3.02v15.29zm1.6-8.08v-5.94h1.5c1.33 0 2.03.56 2.03 2.22v1.43c0 1.58-.68 2.29-2.03 2.29zm12.67 8.08h1.58l-2.69-15.29h-2.42l-2.72 15.29h1.52l.64-3.85h3.42zm-2.37-14.03 1.5 8.94h-3.02zm11.98-1.26v11.44c0 1.92-.75 2.69-2.1 2.69-1.39 0-2.1-.77-2.1-2.57v-11.56h-1.6v11.61c0 2.63 1.45 3.87 3.7 3.87 2.37 0 3.7-1.3 3.7-3.93v-11.55zm4.74 15.29h5.77v-1.28h-4.17v-14.01h-1.6zm-154.14 19.44h4.3c2.87 0 4.38-1.03 4.38-3.85v-.98c0-1.95-1.01-2.89-2.63-3.21 1.39-.32 2.29-1.15 2.29-2.76v-1.07c0-2.33-1.35-3.42-4.13-3.42h-4.21zm3.23-2.33v-4.58h.71c1.05 0 1.48.32 1.48 1.71v1.09c0 1.28-.43 1.77-1.41 1.77h-.78zm0-6.78v-3.85h.68c.86 0 1.3.24 1.3 1.39v.96c0 1.13-.36 1.5-1.3 1.5zm13.26-6.18v11.12c0 1.28-.34 1.73-1.15 1.73-.88 0-1.18-.45-1.18-1.71v-11.14h-3.29v11.21c0 2.97 1.6 4.32 4.45 4.32 2.82 0 4.49-1.33 4.49-4.3v-11.23zm9.68 15.52c2.72 0 4.23-1.39 4.23-4.17v-.3c0-2.99-1.56-3.91-3.38-5.07-1.33-.9-1.8-1.28-1.8-2.37v-.09c0-.86.3-1.2.92-1.2.58 0 .98.28.98 1.37v.49h3.1v-.45c-.02-2.69-1.5-3.96-4.08-3.96-2.63 0-4.13 1.41-4.13 3.96v.09c0 2.52 1.05 3.66 3.04 4.92 1.37.9 2.12 1.33 2.12 2.69v.17c0 .98-.32 1.41-1.01 1.41-.79 0-1.11-.41-1.11-1.65v-.6h-3.19v.49c.03 3.08 1.7 4.27 4.31 4.27zm6.55-.23h3.31v-15.29h-3.31zm5.91 0h2.84v-9.49l3.04 9.49h3.12v-15.29h-2.87v8.17l-2.59-8.17h-3.55v15.29zm11.54 0h7.14v-2.59h-3.85v-4.23h2.87v-2.46h-2.87v-3.42h3.64v-2.59h-6.93zm13.29.23c2.72 0 4.23-1.39 4.23-4.17v-.3c0-2.99-1.56-3.91-3.38-5.07-1.33-.9-1.8-1.28-1.8-2.37v-.09c0-.86.3-1.2.92-1.2.58 0 .98.28.98 1.37v.49h3.1v-.45c-.02-2.69-1.5-3.96-4.08-3.96-2.63 0-4.13 1.41-4.13 3.96v.09c0 2.52 1.05 3.66 3.04 4.92 1.37.9 2.12 1.33 2.12 2.69v.17c0 .98-.32 1.41-1.01 1.41-.79 0-1.11-.41-1.11-1.65v-.6h-3.19v.49c.03 3.08 1.7 4.27 4.31 4.27zm10.38 0c2.72 0 4.23-1.39 4.23-4.17v-.3c0-2.99-1.56-3.91-3.38-5.07-1.33-.9-1.8-1.28-1.8-2.37v-.09c0-.86.3-1.2.92-1.2.58 0 .98.28.98 1.37v.49h3.1v-.45c-.02-2.69-1.5-3.96-4.08-3.96-2.63 0-4.13 1.41-4.13 3.96v.09c0 2.52 1.05 3.66 3.04 4.92 1.37.9 2.12 1.33 2.12 2.69v.17c0 .98-.32 1.41-1.01 1.41-.79 0-1.11-.41-1.11-1.65v-.6h-3.19v.49c.03 3.08 1.7 4.27 4.31 4.27zm11.25-.1c2.52 0 3.85-1.41 3.85-4.04v-11.38h-3.31v11.23c0 1.07-.47 1.43-1.3 1.43-.45 0-.75-.06-1.01-.13v2.57c.38.17.89.32 1.77.32zm10.83.1c2.84 0 4.68-1.48 4.68-4.66v-6.5c0-3.21-1.9-4.58-4.68-4.58-2.69 0-4.66 1.45-4.66 4.6v6.57c0 3.14 1.81 4.57 4.66 4.57zm0-2.65c-.9 0-1.3-.56-1.3-1.95v-6.57c0-1.37.43-1.92 1.3-1.92.9 0 1.33.6 1.33 1.92v6.54c-.01 1.41-.43 1.98-1.33 1.98zm12.69-12.87v11.12c0 1.28-.34 1.73-1.15 1.73-.88 0-1.18-.45-1.18-1.71v-11.14h-3.29v11.21c0 2.97 1.6 4.32 4.45 4.32 2.82 0 4.49-1.33 4.49-4.3v-11.23zm5.8 15.29h3.29v-6.37h.6l1.69 6.37h3.42l-2.01-6.89c1.01-.49 1.58-1.3 1.58-3.04v-1.56c0-2.54-1.2-3.81-4.41-3.81h-4.17v15.3zm3.3-8.49v-4.28h.77c.92 0 1.3.36 1.3 1.39v1.41c0 1.09-.41 1.48-1.3 1.48zm7.7 8.49h2.84v-9.49l3.04 9.49h3.12v-15.29h-2.87v8.17l-2.59-8.17h-3.55v15.29zm17.16 0h3.34l-2.44-15.29h-4.73l-2.42 15.29h3.02l.41-3.12h2.4zm-1.62-12.36.9 6.95h-1.8zm6.87 12.36h6.74v-2.63h-3.44v-12.66h-3.29v15.29z" fill="#fff"/></g></svg>