<svg enable-background="new 0 0 100 50" viewBox="0 0 100 50" xmlns="http://www.w3.org/2000/svg"><g fill="#004282"><path d="m2.8 33.1h2.9v.2h-2.6v2h2.3v.2h-2.4v2.5h-.2zm4.8 5c-.9 0-1.5-.7-1.5-1.9s.6-1.9 1.5-1.9 1.5.6 1.5 1.8v.1h-2.8v.1c0 1 .5 1.6 1.3 1.6.6 0 1.1-.4 1.2-1h.2c-.1.8-.8 1.2-1.4 1.2zm1.2-2c0-.9-.5-1.5-1.2-1.5s-1.2.6-1.3 1.5zm4.1 1.9h-.2v-.8c-.2.6-.8.9-1.4.9-1 0-1.6-.7-1.6-1.9s.6-1.9 1.6-1.9c.6 0 1.1.3 1.4.9v-2.1h.2zm-1.6-3.4c-.8 0-1.4.6-1.4 1.7s.5 1.7 1.4 1.7c.8 0 1.4-.6 1.4-1.7s-.6-1.7-1.4-1.7zm3.9 3.5c-.9 0-1.5-.7-1.5-1.9s.6-1.9 1.5-1.9 1.5.6 1.5 1.8v.1h-2.8v.1c0 1 .5 1.6 1.3 1.6.6 0 1.1-.4 1.2-1h.2c-.1.8-.7 1.2-1.4 1.2zm1.3-2c0-.9-.5-1.5-1.2-1.5s-1.3.6-1.3 1.5zm1.1-1.6h.2v.6c.2-.5.6-.7 1.1-.7v.2c-.8 0-1.1.6-1.1 1.7v1.7h-.2zm4.6 3.6c-.3 0-.5-.2-.5-.6-.3.5-.9.7-1.4.7s-1-.3-1.1-.9v-.1c0-.7.5-.9 1.4-1.1.7-.1 1.1-.1 1.1-.4v-.3c0-.5-.3-.7-1-.7s-1.1.3-1.2.9h-.2c0-.7.5-1.1 1.4-1.1.4 0 .8.1 1 .4.1.2.2.5.1.7v1.7c0 .4 0 .6.3.6h.1zm-1.4-1.9c-.9.1-1.4.3-1.4.9s.3.8.9.8c.4 0 .7-.1 1-.4s.4-.7.4-1v-.5c-.1.1-.4.1-.9.2zm2.9 1.7c.1 0 .2 0 .3-.1v.2c-.1 0-.2.1-.4.1-.4 0-.5-.2-.5-.6v-2.8h-.4v-.2h.4v-1h.2v1h.7v.2h-.6v2.6c0 .4 0 .6.3.6zm1.1-4.8h.2v.6h-.2zm0 1.4h.2v3.5h-.2zm2.6-.1c1 0 1.6.7 1.6 1.9s-.6 1.9-1.6 1.9-1.6-.7-1.6-1.9.6-1.9 1.6-1.9zm0 3.5c.8 0 1.4-.6 1.4-1.7s-.5-1.7-1.4-1.7-1.4.7-1.4 1.8.6 1.6 1.4 1.6zm2.4-3.4h.2v.5c.2-.4.7-.7 1.2-.7.8 0 1.2.4 1.2 1.3v2.4h-.2v-2.3c0-.8-.3-1.2-1-1.2-.3 0-.7.1-.9.4s-.3.8-.3 1.2v1.9h-.2zm6.9-.1c1 0 1.6.7 1.6 1.9s-.6 1.9-1.6 1.9-1.6-.7-1.6-1.9c.1-1.2.7-1.9 1.6-1.9zm0 3.5c.8 0 1.4-.6 1.4-1.7s-.5-1.7-1.4-1.7-1.4.6-1.4 1.7.6 1.7 1.4 1.7zm3.4-4.7c-.4 0-.5.2-.5.7v.5h.6v.2h-.6v3.4h-.2v-3.4h-.5v-.2h.5v-.5c0-.7.1-.9.7-.9h.2v.2zm4-.1h.3l1.9 4.9h-.3l-.6-1.7h-2.3l-.6 1.7h-.2zm1.2 3-1.1-2.8-1.1 2.8zm1.5-1.6h.2v.5c.2-.4.6-.7 1.1-.7s.9.3 1.1.7c.2-.5.7-.7 1.2-.7.7 0 1.1.4 1.1 1.3v2.4h-.2v-2.1c0-.3 0-.6-.1-.8-.2-.3-.5-.5-.8-.5s-.6.1-.8.4-.3.8-.3 1.2v1.8h-.3v-2.2c0-.3 0-.6-.1-.8-.2-.3-.5-.5-.8-.5s-.6.1-.8.4-.3.8-.3 1.2v1.9h-.2zm7 3.6c-.9 0-1.5-.7-1.5-1.9s.6-1.9 1.5-1.9 1.5.6 1.5 1.8v.1h-2.8v.1c0 1 .5 1.6 1.3 1.6.6 0 1.1-.4 1.2-1h.2c-.1.8-.7 1.2-1.4 1.2zm1.2-2c0-.9-.5-1.5-1.2-1.5s-1.3.6-1.3 1.5zm1.1-1.6h.2v.6c.2-.5.6-.7 1.1-.7v.2c-.8 0-1.1.6-1.1 1.7v1.7h-.2zm1.9-1.4h.2v.6h-.2zm0 1.4h.2v3.5h-.2zm2.6 3.6c-.9 0-1.5-.7-1.5-1.9s.6-1.9 1.6-1.9c.7-.1 1.3.4 1.4 1.1h-.2c-.1-.6-.6-1-1.1-.9-.8 0-1.3.6-1.3 1.7s.5 1.7 1.3 1.7c.6 0 1.1-.4 1.2-1.1 0 .8-.6 1.4-1.4 1.3zm5 0c-.3 0-.5-.2-.5-.6-.3.5-.9.7-1.4.7s-1-.3-1.1-.9v-.1c0-.7.5-.9 1.4-1.1.7-.1 1.1-.1 1.1-.4v-.3c0-.5-.3-.7-1-.7s-1.1.3-1.2.9h-.2c0-.7.5-1.1 1.4-1.1.5-.1 1.1.2 1.2.7v.4 1.7c0 .4 0 .6.3.6h.1v.2s0 0-.1 0zm-1.4-1.9c-.9.1-1.4.3-1.4.9 0 .4.3.8.7.8h.2c.4 0 .7-.1 1-.4s.4-.7.4-1v-.5c0 .1-.4.1-.9.2zm2.2-1.7h.2v.5c.2-.4.7-.7 1.2-.7.8 0 1.2.4 1.2 1.3v2.4h-.2v-2.3c0-.8-.3-1.2-1-1.2-.3 0-.7.1-.9.4s-.3.8-.3 1.2v1.9h-.2zm5.6 2c0 .8.6 1.4 1.4 1.4h.1c.9 0 1.4-.5 1.4-1.2 0-.8-.5-.9-1.5-1.2-.4-.1-.8-.2-1.2-.5-.2-.2-.4-.5-.4-.8 0-.8.6-1.3 1.5-1.3.8-.1 1.5.5 1.6 1.3v.1h-.2c0-.7-.6-1.2-1.2-1.3h-.1c-.8 0-1.2.4-1.2 1.1 0 .3.1.5.3.7.3.2.7.4 1.1.4 1.1.3 1.6.5 1.6 1.4 0 .8-.6 1.4-1.7 1.4-.9 0-1.6-.6-1.7-1.5v-.1zm5.4-2.1c1 0 1.6.7 1.6 1.9s-.6 1.9-1.6 1.9-1.6-.7-1.6-1.9.6-1.9 1.6-1.9zm0 3.5c.8 0 1.4-.6 1.4-1.7s-.5-1.7-1.4-1.7c-.8 0-1.4.6-1.4 1.6 0 1.2.5 1.8 1.4 1.8zm3.8.2c-.9 0-1.5-.7-1.5-1.9s.6-1.9 1.6-1.9c.7-.1 1.3.4 1.4 1.1h-.2c-.1-.6-.6-1-1.1-.9-.8 0-1.3.6-1.3 1.7s.5 1.7 1.3 1.7c.6 0 1.1-.4 1.2-1.1h.2c-.3.8-.9 1.4-1.6 1.3zm2.2-5h.2v.6h-.2zm0 1.4h.2v3.5h-.2zm2.6 3.6c-.9 0-1.5-.7-1.5-1.9s.6-1.9 1.5-1.9 1.5.6 1.5 1.8v.1h-2.8v.1c0 1 .5 1.6 1.3 1.6.6 0 1.1-.4 1.2-1h.2c-.1.8-.7 1.2-1.4 1.2zm1.3-2c0-.9-.5-1.5-1.2-1.5s-1.2.6-1.3 1.5zm1.8 1.8c.1 0 .2 0 .3-.1v.2c-.1 0-.2.1-.4.1-.4 0-.5-.2-.5-.6v-2.8h-.4v-.2h.4v-1h.2v1h.6v.2h-.6v2.6c.1.4.1.6.4.6zm1-4.8h.2v.6h-.2zm0 1.4h.2v3.5h-.2zm2.6 3.6c-.9 0-1.5-.7-1.5-1.9s.6-1.9 1.5-1.9 1.5.6 1.5 1.8v.1h-2.8v.1c0 1 .5 1.6 1.3 1.6.6 0 1.1-.4 1.2-1h.2c-.1.8-.7 1.2-1.4 1.2zm1.2-2c0-.9-.5-1.5-1.2-1.5s-1.3.6-1.3 1.5zm2.4 1.8c.6 0 1.1-.3 1.1-.8 0-.4-.2-.6-.7-.7s-.9-.2-1.3-.5c-.2-.1-.3-.4-.3-.6 0-.5.5-.9 1.2-.9.6-.1 1.1.4 1.2 1h-.2c0-.5-.5-.9-1-.8-.6 0-1 .3-1 .7 0 .5.4.6 1.2.8s1.1.4 1.1 1-.5 1-1.3 1c-.7.1-1.3-.4-1.4-1.1h.2c.1.5.6 1 1.2.9zm-92.7 2.9c-.4 0-.5.2-.5.7v.5h.6v.2h-.5v3.4h-.3v-3.4h-.4v-.2h.5v-.5c0-.7.1-.9.7-.9h.2v.2zm2.3 1.1c1 0 1.6.7 1.6 1.9s-.6 1.9-1.6 1.9-1.6-.7-1.6-1.9.6-1.9 1.6-1.9zm0 3.6c.8 0 1.4-.6 1.4-1.7s-.5-1.7-1.4-1.7-1.3.6-1.3 1.7c-.1 1.1.4 1.7 1.3 1.7zm2.4-3.5h.2v.6c.1-.5.6-.7 1.1-.7v.2c-.8 0-1.1.6-1.1 1.7v1.7h-.2zm3.8-1.4h3v.2h-2.8v2h2.5v.2h-2.5v2.3h2.9v.2h-3.1zm3.4 5 1.3-1.8-1.3-1.8h.3l1.1 1.5 1.1-1.5h.2l-1.2 1.7 1.3 1.8h-.3l-1.2-1.7-1.2 1.7h-.1zm3.4-3.6h.2v.8c.2-.6.7-.9 1.3-.9 1 0 1.6.7 1.6 1.9s-.6 1.9-1.6 1.9c-.6 0-1.1-.3-1.3-.9v2.2h-.2zm1.5 3.5c.8 0 1.4-.6 1.4-1.7s-.5-1.7-1.4-1.7c-.8 0-1.3.6-1.3 1.7s.5 1.7 1.3 1.7zm3.8.2c-.9 0-1.5-.7-1.5-1.9s.6-1.9 1.5-1.9 1.5.6 1.5 1.8v.1h-2.8v.1c0 1 .5 1.6 1.3 1.6.6 0 1.1-.4 1.2-.9h.2c-.1.6-.7 1.1-1.4 1.1zm1.3-2.1c0-.9-.5-1.5-1.2-1.5s-1.2.6-1.3 1.5zm1-1.6h.2v.6c.1-.5.6-.7 1.1-.7v.2c-.8 0-1.1.6-1.1 1.7v1.7h-.2zm1.9-1.3h.2v.6h-.2zm0 1.3h.2v3.6h-.2zm1.3 0h.2v.6c.2-.4.6-.7 1.1-.7.5-.1.9.2 1.1.7.2-.5.7-.7 1.2-.7.7 0 1.1.4 1.1 1.3v2.4h-.2v-2.1c0-.3 0-.6-.1-.8-.2-.3-.5-.5-.8-.5s-.6.1-.8.4-.3.8-.3 1.2v1.9h-.2v-2.2c0-.3 0-.6-.1-.8-.2-.3-.5-.5-.8-.5s-.6.1-.8.4-.3.8-.3 1.2v1.9h-.2zm7 3.7c-.9 0-1.5-.7-1.5-1.9s.6-1.9 1.5-1.9 1.5.6 1.5 1.8v.1h-2.8v.1c0 1 .5 1.6 1.3 1.6.6 0 1.1-.4 1.2-.9h.2c-.1.6-.7 1.1-1.4 1.1zm1.2-2.1c0-.9-.5-1.5-1.2-1.5s-1.2.6-1.3 1.5zm1.1-1.6h.2v.6c.2-.4.7-.7 1.2-.7.8 0 1.2.4 1.2 1.3v2.4h-.2v-2.3c0-.8-.3-1.2-1-1.2-.3 0-.7.1-.9.4s-.3.8-.3 1.2v1.9h-.2zm4.4 3.5c.1 0 .2 0 .3-.1v.2c-.1 0-.2.1-.4.1-.4 0-.5-.2-.5-.6v-2.8h-.4v-.3h.4v-1h.2v1h.6v.2h-.6v2.6c.1.5.1.7.4.7zm3.8.1c-.3 0-.5-.2-.5-.6-.3.5-.9.7-1.4.7s-1-.4-1.1-.9v-.1c0-.7.5-.9 1.4-1.1.7-.1 1.1-.1 1.1-.4v-.3c0-.5-.3-.7-1-.7s-1.1.3-1.2.9h-.2c0-.7.5-1.1 1.4-1.1.5-.1 1.1.2 1.2.7v.4 1.7c0 .4 0 .6.3.6h.1v.2zm-1.4-1.8c-.9.1-1.4.3-1.4.9 0 .4.3.8.7.8h.2c.4 0 .7-.1 1-.4s.4-.7.4-1v-.5c-.1.1-.4.1-.9.2zm2.2-3.1h.2v4.9h-.2zm3.2-.1h1.4c.4 0 .9 0 1.3.2.3.2.6.6.5 1 0 .5-.3 1-.8 1.1.7 0 1.1.6 1.1 1.3 0 .4-.2.8-.6 1.1-.4.2-.9.3-1.3.2h-1.5zm1.4 2.3c1 0 1.5-.3 1.5-1.1 0-.7-.5-1-1.6-1h-1.1v2.1zm.1 2.5c.4 0 .8 0 1.1-.1.4-.2.6-.6.6-1 0-.8-.5-1.1-1.7-1.1h-1.2v2.3h1.2zm2.7-4.7h.2v.6h-.2zm0 1.3h.2v3.6h-.2zm2.7-.1c1 0 1.6.7 1.6 1.9s-.6 1.9-1.6 1.9-1.6-.7-1.6-1.9.6-1.9 1.6-1.9zm0 3.6c.8 0 1.4-.6 1.4-1.7s-.5-1.7-1.4-1.7-1.4.6-1.4 1.7.6 1.7 1.4 1.7zm2.4-4.8h.2v4.9h-.2zm2.7 1.2c1 0 1.6.7 1.6 1.9s-.6 1.9-1.6 1.9-1.6-.7-1.6-1.9.6-1.9 1.6-1.9zm0 3.6c.8 0 1.4-.6 1.4-1.7s-.5-1.7-1.4-1.7-1.4.6-1.4 1.7.6 1.7 1.4 1.7zm3.8.2c-1 0-1.6-.7-1.6-1.9s.6-1.9 1.6-1.9c.6 0 1.1.3 1.4.9v-.8h.2v3.4c0 .4 0 .7-.2 1-.3.4-.9.7-1.4.6-.8 0-1.3-.4-1.3-1.1h.2c0 .5.5.9 1.2.9.5.1 1-.2 1.2-.6.1-.3.2-.7.2-1v-.4c-.3.6-.9.9-1.5.9zm0-3.6c-.8 0-1.4.6-1.4 1.7s.5 1.7 1.4 1.7c.8 0 1.4-.6 1.4-1.7s-.6-1.7-1.4-1.7zm2.7 4.9c-.1 0-.2 0-.2 0v-.2h.3c.2 0 .4-.1.5-.4l.3-.8-1.4-3.6h.2l1.2 3.3 1.2-3.3h.2l-1.6 4.1c-.1.6-.3.9-.7.9z"/><path d="m16.9 13.1h-9v-6.1h12l1.8-3.7h-18v24.3h4.2v-10.8h7.3zm7-9.9-11.7 24.3h4.3l2-4.3h11l2 4.3h4.5l-11.3-24.2zm-3.8 16.5 4-9.1 3.9 9.1zm23.1-6.2-1.7-1c-2-1.2-3.1-2.1-3.1-3.5 0-1.5 1.2-2.5 3.3-2.5 1.4 0 3.3.6 5.5 1.8l.2.1v-4h-.1c-1.8-.9-3.8-1.4-5.9-1.4-4.2 0-7.2 2.6-7.2 6.3 0 3.1 2 4.9 5 6.7l1.7 1c2.5 1.5 3.3 2.5 3.3 4.1 0 1.8-1.6 3.1-3.9 3.1h-.2c-1.5 0-3.1-.4-4.4-1.2l-.4-.3 2 4.7h.1c1 .3 2.1.4 3.1.4 5 0 8.2-2.7 8.2-6.9-.1-3.4-2.3-5.5-5.5-7.4zm11.4 3.2h8.6v-3.7h-8.6v-6h10v-3.7h-14.2v24.3h14.3v-3.8h-10.1zm23.8-2.1c2.6-1 3.8-2.7 3.8-5.1 0-4-2.7-6.2-8.1-6.2h-7.2v24.3h6.6c6.2 0 9.3-2.3 9.3-7.1-.1-3.1-1.7-5.3-4.4-5.9zm-7.4-8.1h2.3c3.2 0 4.7 1 4.7 3.3 0 2.2-1.7 3.6-4.5 3.6h-2.5zm3 17.6h-3v-7.6h3c3 0 4.6 1.4 4.6 3.7-.1 2.5-1.7 3.9-4.6 3.9z"/></g></svg>