<svg viewBox="0 0 225 30" xmlns="http://www.w3.org/2000/svg"><g fill="#414042"><path d="m49.2 16.5c-.7 5.9-6.2 10.8-13 10.8-7 0-12.7-5.3-12.7-12.7s5.7-12.6 12.7-12.6c4.5 0 8.9 2.2 11.1 5.8h-1.2c-2.4-3.2-5.9-5-9.9-5-6.5 0-11.7 5-11.7 11.8s5.2 11.8 11.7 11.8c6.2 0 10.9-4.4 11.8-9h-14.5v-.9z"/><path d="m66.7 2.4v.9h-12.4v10.8h12.4v.9h-12.4v11h12.4v.9h-13.4v-24.5z"/><path d="m90 25.6.1-23.1h1v24.4h-1.3l-17-23.5h-.1v23.5h-1v-24.5h1.5z"/><path d="m110 2.4v.9h-12.4v10.8h12.4v.9h-12.4v11h12.4v.9h-13.4v-24.5z"/><path d="m126.9 2.4v.9h-6.6v23.6h-1v-23.6h-6.6v-.9z"/><path d="m130.1 26.9h1v-24.5h-1z"/></g><path d="m158.7 21.6c-1.7 2.8-5.6 5.7-10.7 5.7-7 0-12.7-5.3-12.7-12.7s5.8-12.6 12.8-12.6c5.2 0 8.9 3.1 10.7 5.9h-1.2c-.9-1.3-4.1-5-9.5-5-6.5 0-11.7 5-11.7 11.8s5.2 11.8 11.7 11.8c5.7 0 8.9-3.9 9.5-4.9z" fill="#009ade"/><path d="m162.9 2.4h1v15.9c0 2.4 0 3.9 1.5 5.9 1.1 1.4 3.1 2.2 5 2.2s3.9-.9 4.9-2.2c1.5-2 1.5-3.5 1.5-5.9v-15.9h1v15.9c0 2.2-.1 5.5-2.9 7.5-1.3.9-2.9 1.5-4.6 1.5s-3.3-.6-4.5-1.5c-2.9-2-3-5.3-2.9-7.5z" fill="#009ade"/><path d="m188.6 2.4c3.8 0 5.3.3 6.5 1 2 1 3.5 3.7 3.5 6.5.1 3-1.9 7.6-7.2 7.7h-1l6.6 9.2h-1.3l-7.2-10.1h1.5c2.3 0 3.8-.2 5.4-1.6 1.6-1.6 2.1-3.3 2.1-5.2 0-2.1-1-4.5-2.9-5.7-1.5-1-3.3-1-6.1-1h-4.5v23.6h-1v-24.4z" fill="#009ade"/><path d="m215.4 2.4v.9h-12.4v10.8h12.4v.9h-12.4v11h12.4v.9h-13.4v-24.5z" fill="#009ade"/><path d="m9.9 2.5h-4.4c-1.9 0-3.5 1.5-3.5 3.5 0 1.9 1.6 3.5 3.5 3.5h4.4z" fill="#414042"/><path d="m10.8 9.5h4.4c1.9 0 3.5-1.6 3.5-3.5s-1.6-3.5-3.5-3.5h-4.4z" fill="#009ade"/><path d="m9.9 19.9h-4.4c-1.9 0-3.5 1.6-3.5 3.5s1.6 3.5 3.5 3.5h4.4z" fill="#414042"/><path d="m10.8 26.9h4.4c1.9 0 3.5-1.6 3.5-3.5s-1.6-3.5-3.5-3.5h-4.4z" fill="#009ade"/><path d="m10.8 11.2h4.4c1.9 0 3.5 1.6 3.5 3.5s-1.6 3.5-3.5 3.5h-4.4z" fill="#414042"/><path d="m9.9 18.2h-4.4c-1.9 0-3.5-1.6-3.5-3.5s1.6-3.5 3.5-3.5h4.4z" fill="#009ade"/><path d="m219 3.4v1.1h.8c.2 0 .8 0 .8-.6 0-.5-.6-.5-.7-.5zm.9-.2c.1 0 .9 0 .9.7 0 .3-.2.5-.5.6.4.1.4.3.4.6 0 .5 0 .6.1.7h-.2c0-.1 0-.1-.1-.6 0-.4-.1-.6-.8-.6h-.7v1.2h-.2v-2.6zm-2.1 1.3c0 1.1.9 2 2 2s2-.9 2-2-.8-2-2-2c-1.2-.1-2 .9-2 2zm4.2 0c0 1.2-1 2.2-2.2 2.2s-2.2-.9-2.2-2.2c0-1.2.9-2.2 2.2-2.2s2.2 1 2.2 2.2" fill="#414042"/></svg>
