<svg viewBox="0 0 225 30" xmlns="http://www.w3.org/2000/svg"><g transform="matrix(.79309574 0 0 -.79309574 10 30.307526)"><g fill="#414042"><path d="m49.481 17.363c-.875-7.455-7.791-13.581-16.412-13.581-8.832 0-15.996 6.708-15.996 15.956s7.164 15.954 15.996 15.954c5.665 0 11.205-2.791 13.997-7.373h-1.5c-3.083 4.041-7.457 6.248-12.497 6.248-8.165 0-14.747-6.29-14.747-14.83 0-8.539 6.582-14.831 14.747-14.831 7.831 0 13.788 5.583 14.913 11.331h-18.372v1.125h19.871"/><path d="m71.522 35.151v-1.125h-15.663v-13.621h15.663v-1.125h-15.663v-13.828h15.663v-1.126h-16.912v30.825z"/><path d="m100.893 5.991h.083v29.16h1.25v-30.825h-1.583l-21.411 29.575h-.083v-29.575h-1.25v30.825h1.875z"/><path d="m126.058 35.151v-1.125h-15.663v-13.621h15.663v-1.125h-15.663v-13.828h15.663v-1.126h-16.913v30.825z"/><path d="m147.431 35.151v-1.125h-8.373v-29.7h-1.25v29.7h-8.374v1.125z"/><path d="m151.392 4.326h1.249v30.825h-1.249z"/></g><path d="m187.55 11.032c-2.082-3.54-6.998-7.25-13.455-7.25-8.831 0-15.996 6.708-15.996 15.956s7.165 15.954 15.996 15.954c6.581-.041 11.247-3.916 13.498-7.414h-1.459c-1.166 1.624-5.207 6.248-12.039 6.29-8.164 0-14.746-6.29-14.746-14.83 0-8.539 6.583-14.831 14.746-14.831 7.207 0 11.163 4.915 12.039 6.125z" fill="#009ade"/><path d="m192.804 35.151h1.25v-19.995c0-3.001 0-4.917 1.916-7.414 1.332-1.751 3.873-2.835 6.33-2.835 2.335 0 4.875 1.084 6.207 2.835 1.916 2.497 1.916 4.413 1.916 7.414v19.996h1.25v-19.996c.043-2.791-.081-6.957-3.706-9.497-1.583-1.167-3.624-1.877-5.748-1.877-2.085 0-4.126.709-5.708 1.877-3.625 2.54-3.749 6.706-3.706 9.497v19.995" fill="#009ade"/><path d="m225.176 35.151c4.787 0 6.706-.417 8.204-1.291 2.5-1.25 4.456-4.624 4.456-8.207.169-3.833-2.372-9.622-9.08-9.664l-1.209-.042 8.292-11.621h-1.583l-9.04 12.745h1.916c2.917 0 4.792.25 6.833 1.959 1.957 2.041 2.625 4.165 2.625 6.581 0 2.666-1.293 5.624-3.666 7.164-1.875 1.208-4.125 1.25-7.747 1.25h-5.792v-29.7h-1.25v30.825h7.041" fill="#009ade"/><path d="m259.045 35.151v-1.125h-15.665v-13.621h15.665v-1.125h-15.665v-13.828h15.665v-1.126h-16.914v30.825z" fill="#009ade"/><path d="m-.073 35.118h-5.592c-2.443 0-4.422-1.98-4.422-4.422 0-2.444 1.979-4.424 4.422-4.424h5.592v8.846" fill="#414042"/><path d="m1.042 26.273h5.592c2.443 0 4.422 1.98 4.422 4.422 0 2.443-1.979 4.423-4.422 4.423h-5.592z" fill="#009ade"/><path d="m-.073 13.154h-5.592c-2.443 0-4.422-1.979-4.422-4.422s1.979-4.423 4.422-4.423h5.592v8.845" fill="#414042"/><path d="m1.042 4.309h5.592c2.443 0 4.422 1.98 4.422 4.42 0 2.445-1.979 4.424-4.422 4.424h-5.592z" fill="#009ade"/><path d="m1.042 24.136h5.594c2.441 0 4.422-1.981 4.422-4.422 0-2.443-1.981-4.424-4.422-4.424h-5.594z" fill="#414042"/><path d="m-.071 15.29h-5.594c-2.441 0-4.422 1.981-4.422 4.422 0 2.443 1.981 4.424 4.422 4.424h5.594v-8.846" fill="#009ade"/><path d="m263.56 33.984v-1.374h1.013c.232.029 1.027.015 1.027.702 0 .672-.702.672-.941.672zm1.136.188c.187 0 1.106 0 1.106-.861 0-.427-.283-.687-.621-.781v-.015c.454-.108.534-.384.555-.723.043-.644.043-.709.11-.824h-.211c-.05.079-.05.13-.086.723-.031.448-.073.731-.962.731h-1.028v-1.454h-.203v3.204zm-2.706-1.584c0-1.439 1.113-2.568 2.561-2.568 1.425 0 2.553 1.114 2.553 2.568 0 1.403-1.07 2.567-2.553 2.567-1.49.001-2.561-1.171-2.561-2.567zm5.317 0c0-1.57-1.23-2.756-2.756-2.756-1.547 0-2.763 1.172-2.763 2.756 0 1.511 1.165 2.755 2.763 2.755 1.576 0 2.756-1.228 2.756-2.755" fill="#414042"/></g></svg>