<svg xmlns="http://www.w3.org/2000/svg" viewBox="0 0 225 30"><defs><style>.b{fill:#009ade;}.c{fill:#414042;}</style></defs><g><path class="c" d="M9.92,2.47H5.48c-1.9,0-3.49,1.59-3.49,3.49s1.59,3.49,3.49,3.49h4.44V2.47Z"/><path class="b" d="M10.79,9.45h4.44c1.9,0,3.49-1.59,3.49-3.49s-1.59-3.49-3.49-3.49h-4.44v6.98Z"/><path class="c" d="M10.79,18.17h4.44c1.9,0,3.49-1.59,3.49-3.49s-1.59-3.49-3.49-3.49h-4.44v6.98Z"/><path class="b" d="M9.92,11.19H5.48c-1.9,0-3.49,1.59-3.49,3.49s1.59,3.49,3.49,3.49h4.44v-6.98Z"/><path class="c" d="M9.92,19.84H5.48c-1.9,0-3.49,1.59-3.49,3.49s1.59,3.49,3.49,3.49h4.44v-6.98Z"/><path class="b" d="M10.79,26.82h4.44c1.9,0,3.49-1.59,3.49-3.49s-1.59-3.49-3.49-3.49h-4.44v6.98Z"/></g><g><path class="c" d="M49.26,16.51c-.71,5.95-6.19,10.79-13.01,10.79s-12.69-5.31-12.69-12.69S29.27,1.91,36.25,1.91c4.52,0,8.88,2.22,11.1,5.87h-1.19c-2.46-3.17-5.95-4.92-9.91-4.92-6.5,0-11.66,5-11.66,11.74s5.23,11.74,11.66,11.74,10.94-4.44,11.82-8.96h-14.59v-.87h15.78"/><path class="c" d="M66.71,2.39v.95h-12.37V14.13h12.45v.87h-12.45v10.94h12.45v.95h-13.48V2.47h13.4"/><path class="c" d="M90.02,25.55h0l.08-23.16h.95V26.9h-1.27L72.81,3.42h-.08V26.9h-.95V2.47h1.51l16.73,23.08"/><path class="c" d="M110.01,2.39v.95h-12.45V14.13h12.45v.87h-12.45v10.94h12.45v.95h-13.4V2.47h13.4"/><path class="c" d="M126.9,2.39v.95h-6.66V26.9h-.95V3.34h-6.66v-.87h14.28"/><path class="c" d="M130.07,26.9h.95V2.47h-.95V26.9Z"/><path class="b" d="M158.71,21.58c-1.67,2.78-5.55,5.71-10.71,5.71-6.98,0-12.69-5.31-12.69-12.69s5.71-12.69,12.69-12.69c5.23,0,8.88,3.09,10.71,5.87h-1.19c-.95-1.27-4.12-4.92-9.52-5-6.5,0-11.66,5-11.66,11.74s5.23,11.74,11.66,11.74c5.71,0,8.88-3.89,9.52-4.84l1.19,.16"/><path class="b" d="M162.91,2.39h.95v15.86c0,2.38,0,3.89,1.51,5.87,1.03,1.43,3.09,2.22,5,2.22s3.89-.87,4.92-2.22c1.51-1.98,1.51-3.49,1.51-5.87V2.39h.95v15.86c0,2.22-.08,5.55-2.93,7.53-1.27,.95-2.86,1.51-4.52,1.51s-3.25-.56-4.52-1.51c-2.86-1.98-2.93-5.31-2.93-7.53l.08-15.86"/><path class="b" d="M188.61,2.39c3.81,0,5.31,.32,6.5,1.03,1.98,.95,3.57,3.65,3.57,6.5,.16,3.01-1.9,7.61-7.22,7.69h-.95l6.58,9.2h-1.27l-7.14-10.07h1.51c2.3,0,3.81-.16,5.39-1.59,1.59-1.59,2.06-3.33,2.06-5.23,0-2.14-1.03-4.44-2.93-5.71-1.51-.95-3.25-.95-6.11-.95h-4.6V26.9h-.95V2.47l5.55-.08"/><path class="b" d="M215.41,2.39v.95h-12.45V14.13h12.45v.87h-12.45v10.94h12.45v.95h-13.4V2.47h13.4"/><path class="c" d="M219.77,6.56c-.3,0-.58-.05-.84-.16-.26-.11-.49-.26-.68-.45-.19-.19-.34-.42-.45-.68s-.16-.54-.16-.84,.05-.58,.16-.84,.26-.48,.45-.67c.19-.19,.42-.34,.68-.45s.54-.16,.84-.16,.58,.05,.84,.16c.26,.11,.48,.26,.67,.45,.19,.19,.34,.42,.45,.67s.16,.54,.16,.84-.05,.58-.16,.84-.26,.49-.45,.68c-.19,.19-.42,.34-.67,.45-.26,.11-.54,.16-.84,.16Zm0-.21c.27,0,.52-.05,.75-.15,.23-.1,.43-.23,.61-.41,.17-.17,.31-.38,.4-.61,.1-.23,.15-.48,.15-.76s-.05-.52-.15-.76c-.1-.23-.23-.43-.4-.61-.17-.17-.38-.31-.61-.4-.23-.1-.48-.14-.75-.14s-.52,.05-.76,.14c-.23,.1-.43,.23-.61,.4s-.31,.38-.4,.61c-.1,.23-.14,.48-.14,.76s.05,.52,.14,.76c.1,.23,.23,.44,.4,.61,.17,.18,.38,.31,.61,.41,.23,.1,.48,.15,.76,.15Zm-.67-.64c-.08,0-.12-.04-.12-.13V3.34c0-.1,.05-.15,.15-.15h.81c.26,0,.45,.06,.59,.18s.21,.3,.21,.53c0,.38-.19,.61-.57,.68,.12,.04,.21,.14,.27,.28l.28,.68c.02,.05,.02,.09,0,.13-.02,.03-.05,.05-.09,.05-.06,0-.1-.03-.12-.09l-.31-.73c-.04-.11-.11-.18-.19-.22-.09-.04-.19-.06-.31-.06h-.45v.97c0,.09-.04,.13-.12,.13Zm.12-1.32h.68c.39,0,.58-.16,.58-.49s-.2-.49-.58-.49h-.68v.98Z"/></g></svg>
