<svg viewBox="0 0 58.918 64.462" xmlns="http://www.w3.org/2000/svg"><path d="m12.762 26.201v-.392a2.6635 2.6635 0 0 0 .631-.359.33041.33041 0 0 0 .111-.18 4.029 4.029 0 0 0 .096-.932c.031-.708.047-1.129.047-1.266v-4.192c0-.702-.016-1.393-.047-2.068a2.4562 2.4562 0 0 0 -.115-.876.53662.53662 0 0 0 -.293-.203 5.8633 5.8633 0 0 0 -1.151-.08v-.493c1.317.032 2.129.048 2.444.048q.5175 0 2.326-.048v.493a6.068 6.068 0 0 0 -1.172.08.51205.51205 0 0 0 -.287.189 1.8959 1.8959 0 0 0 -.123.752c-.008.104-.024.838-.047 2.207v5.236q0 .8205.047 1.334c.617.032.685.047 1.293.047a13.073 13.073 0 0 0 3.279-.281 3.3447 3.3447 0 0 0 .188-.536l.326-1.288h.535q-.1785 1.1565-.35 2.715a5.2181 5.2181 0 0 1 -.527.077c-.281.01105-.715.016-1.299.016l-4.33-.047c-.518 0-1.047.016-1.582.047"/><path d="m26.626 25.708v.493c-1.147-.032-1.899-.047-2.26-.047l-2.489.047v-.493a5.5853 5.5853 0 0 0 1.149-.086.56745.56745 0 0 0 .291-.183 1.9847 1.9847 0 0 0 .121-.75q.009-.16352.045-2.215v-3.598q0-1.0529-.045-2.066a2.4838 2.4838 0 0 0 -.117-.875.54488.54488 0 0 0 -.295-.203 5.9244 5.9244 0 0 0 -1.149-.08v-.49197c1.024.032 1.819.047 2.377.047.538 0 1.327-.015 2.372-.047v.49194a5.9659 5.9659 0 0 0 -1.157.08.49293.49293 0 0 0 -.283.19 1.8973 1.8973 0 0 0 -.121.751c-.008.102-.021.83606-.047 2.203v3.598c0 .709.01 1.397.026 2.067a2.34 2.34 0 0 0 .117.875.55434.55434 0 0 0 .296.206 5.7159 5.7159 0 0 0 1.169.086m-1.561-9.035c-.008.102-.021.83606-.047 2.203v3.598"/><path d="m28.418 26.201v-.492a3.3134 3.3134 0 0 0 1.119-.13.27516.27516 0 0 0 .164-.147 2.6352 2.6352 0 0 0 .115-.814c.032-.686.047-1.274.047-1.77v-6.323a1.0345 1.0345 0 0 0 -.033-.336 1.1034 1.1034 0 0 0 -.295-.333.71756.71756 0 0 0 -.338-.16 6.2197 6.2197 0 0 0 -.847-.043v-.493c.933.032 1.523.048 1.763.048.41 0 .811-.016 1.217-.048q.67951.86252.998 1.27l1.654 1.977 2.414 2.824q1.158 1.35 1.861 2.124.4455.5115.75.803v-5.66c0-.50805-.015-1.103-.047-1.779a2.895 2.895 0 0 0 -.105-.8.33912.33912 0 0 0 -.172-.153 3.736 3.736 0 0 0 -1.119-.113v-.493c.641.032 1.287.048 1.947.048q.92552 0 1.684-.048v.493a3.7007 3.7007 0 0 0 -1.117.113.29658.29658 0 0 0 -.164.162 2.4951 2.4951 0 0 0 -.114.818c-.031.678-.048 1.267-.048 1.763v3.735q0 1.137.048 4.237h-.804l-.202-.215c-.031-.006-.099-.089-.126-.112a3.4035 3.4035 0 0 1 -.309-.314q-.6705-.744-.988-1.123l-1.045-1.279-5.746-6.655v6.027c0 .514.014 1.118.051 1.817a2.8451 2.8451 0 0 0 .103.801.28678.28678 0 0 0 .172.156 3.4893 3.4893 0 0 0 1.121.125v.492c-.475-.031-1-.047-1.568-.047-.627 0-1.309.016-2.041.047"/><path d="m47.346 25.708v.492c-1.145-.03094-1.896-.047-2.26-.047l-2.488.047v-.492a5.6432 5.6432 0 0 0 1.154-.086.55781.55781 0 0 0 .287-.183 1.9249 1.9249 0 0 0 .119-.75c.01-.109.024-.848.047-2.215v-3.598q0-1.0545-.047-2.066a2.4537 2.4537 0 0 0 -.115-.875.52813.52813 0 0 0 -.293-.203 5.9524 5.9524 0 0 0 -1.152-.08v-.492c1.025.031 1.82.047 2.379.047q.80551 0 2.369-.047v.492a5.9275 5.9275 0 0 0 -1.154.08.49717.49717 0 0 0 -.285.189 1.8868 1.8868 0 0 0 -.12.752q-.0105.153-.045 2.203v3.598c0 .709.006 1.397.024 2.067a2.3398 2.3398 0 0 0 .117.875.55425.55425 0 0 0 .297.206 5.6764 5.6764 0 0 0 1.166.086"/><path d="m58.918 24.82-.316.725a8.649 8.649 0 0 1 -1.862.662 9.0435 9.0435 0 0 1 -1.98.203 8.7465 8.7465 0 0 1 -2.342-.3 6.2752 6.2752 0 0 1 -1.885-.863 5.3098 5.3098 0 0 1 -2.1-2.775 5.7152 5.7152 0 0 1 -.269-1.793 5.252 5.252 0 0 1 1.809-4.084 7.1091 7.1091 0 0 1 4.933-1.622 11.023 11.023 0 0 1 1.371.081 13.849 13.849 0 0 1 1.532.309c.605.152.972.24 1.109.268a4.6997 4.6997 0 0 0 -.266.831 11.396 11.396 0 0 0 -.177 1.528h-.489l-.008-.908a1.3693 1.3693 0 0 0 -.884-1.133 5.8409 5.8409 0 0 0 -2.348-.368 6.6379 6.6379 0 0 0 -1.961.279 3.7592 3.7592 0 0 0 -1.422.839 4.4176 4.4176 0 0 0 -1.008 1.459 5.6285 5.6285 0 0 0 -.396 2.222 4.9389 4.9389 0 0 0 1.5 3.765 5.526 5.526 0 0 0 3.969 1.423 7.0725 7.0725 0 0 0 2.064-.289 4.9569 4.9569 0 0 0 1.287-.623z"/><path d="m10.754 24.82-.316.725a8.6717 8.6717 0 0 1 -1.86.662 9.062 9.062 0 0 1 -1.982.203 8.7465 8.7465 0 0 1 -2.342-.3 6.2526 6.2526 0 0 1 -1.885-.863 5.5161 5.5161 0 0 1 -1.322-1.259 5.3888 5.3888 0 0 1 -.777-1.516 5.6862 5.6862 0 0 1 -.27-1.793 5.2568 5.2568 0 0 1 1.807-4.084 7.1248 7.1248 0 0 1 4.935-1.622 11.023 11.023 0 0 1 1.371.081 13.849 13.849 0 0 1 1.532.309c.603.152.974.24 1.109.268a4.8698 4.8698 0 0 0 -.266.831 11.102 11.102 0 0 0 -.175 1.528h-.489l-.009-.908a1.3688 1.3688 0 0 0 -.885-1.133 5.8343 5.8343 0 0 0 -2.348-.368 6.638 6.638 0 0 0 -1.961.279 3.7671 3.7671 0 0 0 -1.424.839 4.4432 4.4432 0 0 0 -1.006 1.459 5.5932 5.5932 0 0 0 -.396 2.222 4.9389 4.9389 0 0 0 1.5 3.765 5.5227 5.5227 0 0 0 3.969 1.423 7.0579 7.0579 0 0 0 2.064-.289 4.9571 4.9571 0 0 0 1.287-.623z"/><path d="m4.6489.9904v-.517q.8505.06 1.627.06c.526 0 1.028-.02 1.509-.06q.717 1.5525 1.309 2.712l3.082 6.034 2.784-5.526q1.1355-2.2559 1.517-3.22.8565.06 1.45.06c.361 0 .945-.02 1.757-.06v.517a6.0654 6.0654 0 0 0 -1.174.08.52187.52187 0 0 0 -.287.186 1.6675 1.6675 0 0 0 -.122.743c-.006.103-.018.832-.04 2.187v3.567q0 1.0545.04 2.049a2.3578 2.3578 0 0 0 .116.866.55718.55718 0 0 0 .299.206 5.592 5.592 0 0 0 1.168.085v.49694c-1.091-.043-1.86-.06-2.308-.06-.362 0-1.161.017-2.401.06v-.49694a5.7709 5.7709 0 0 0 1.178-.085.49865.49865 0 0 0 .283-.181 1.6931 1.6931 0 0 0 .121-.748c.007-.109.02-.838.04-2.196v-5.668l-2.803 5.584c-.438.869-.781 1.573-1.032 2.102q-.2685.576-.812 1.845h-.316a3.5964 3.5964 0 0 0 -.195-.472l-.554-1.131-3.882-7.667v5.407c0 .702.019 1.387.059 2.051a2.2958 2.2958 0 0 0 .118.86694.54833.54833 0 0 0 .3.207 5.6325 5.6325 0 0 0 1.173.085v.49694l-1.961-.06-2.043.06v-.49694a5.6564 5.6564 0 0 0 1.168-.085.55.55 0 0 0 .292-.181 1.9077 1.9077 0 0 0 .122-.746c.006-.108.02-.838.039-2.194v-3.5669q0-1.0441-.039-2.048a2.3809 2.3809 0 0 0 -.117-.866.55383.55383 0 0 0 -.299-.202 6.0061 6.0061 0 0 0 -1.166-.08"/><path d="m21.927 11.406c.459 0 1.143.014 2.061.051v-.492a6.1625 6.1625 0 0 1 -1.057-.073.50427.50427 0 0 1 -.276-.139.25567.25567 0 0 1 -.066-.177 2.2878 2.2878 0 0 1 .237-.784l.877-1.992h4.709l1.007 2.375a1.2061 1.2061 0 0 1 .111.441.2411.2411 0 0 1 -.07.179.51745.51745 0 0 1 -.262.115 9.9836 9.9836 0 0 1 -1.104.055v.492l2.616-.051c.336 0 .928.014 1.774.051v-.492a2.5464 2.5464 0 0 1 -.829-.094.81226.81226 0 0 1 -.337-.353q-.279-.489-1.124-2.375l-3.481-7.769h-.513c-.729 1.661-1.202 2.729-1.427 3.2061l-2.035 4.366q-.915 1.896-1.06 2.181a2.3863 2.3863 0 0 1 -.387.62194.74494.74494 0 0 1 -.292.165 4.779 4.779 0 0 1 -.804.051v.492c.628-.037 1.205-.051 1.732-.051m4.127-8.912 2.033 4.654h-4.105z"/><path d="m39.241 2.1242a3.3496 3.3496 0 0 0 .483-.87195.20712.20712 0 0 0 -.152-.204 6.4368 6.4368 0 0 0 -1.197-.081v-.494c1.003.033 1.593.048 2.151.048.538 0 .833-.015 1.898-.048v.494a4.6914 4.6914 0 0 0 -1.043.081 1.1819 1.1819 0 0 0 -.414.18805 4.2539 4.2539 0 0 0 -.637.75l-2.379 3.408a10.741 10.741 0 0 0 -.774 1.319 1.294 1.294 0 0 0 -.089.464v.588c0 .69995.013 1.383.047 2.043a2.3285 2.3285 0 0 0 .114.867.56774.56774 0 0 0 .296.205 5.6431 5.6431 0 0 0 1.148.084v.493c-.881-.038-1.643-.052-2.284-.052-.616 0-1.431.014-2.441.052v-.493a5.7651 5.7651 0 0 0 1.152-.084.50812.50812 0 0 0 .28-.182 1.748 1.748 0 0 0 .128-.743q.009-.16206.047-2.19v-.898q-.17252-.34653-.331-.622-.114-.19355-.825-1.327l-2.068-2.932a3.7598 3.7598 0 0 0 -.568-.75 1.0832 1.0832 0 0 0 -.398-.18805 4.4088 4.4088 0 0 0 -1.023-.081v-.494c1.065.033 1.385.048 1.921.048.561 0 1.992-.015 2.996-.048v.494a7.8462 7.8462 0 0 0 -1.284.081.23466.23466 0 0 0 -.172.204 3.0638 3.0638 0 0 0 .41.872l2.423 3.914z"/><path d="m44.111 3.0144a3.4746 3.4746 0 0 1 1.459-1.589 4.5107 4.5107 0 0 1 2.258-.549 5.1735 5.1735 0 0 1 1.66.26 4.0879 4.0879 0 0 1 1.25.647 4.071 4.071 0 0 1 .828.899 4.5824 4.5824 0 0 1 .559 1.145 7.2822 7.2822 0 0 1 .34 2.268 6.404 6.404 0 0 1 -.475 2.549 3.6805 3.6805 0 0 1 -1.434 1.708 4.1757 4.1757 0 0 1 -2.267.60394 4.7937 4.7937 0 0 1 -1.711-.29394 4.0472 4.0472 0 0 1 -1.403-.93006 4.7764 4.7764 0 0 1 -1.011-1.5569 6.8494 6.8494 0 0 1 -.391-1.312 7.534 7.534 0 0 1 -.154-1.493 5.4467 5.4467 0 0 1 .492-2.356m-1.793 5.192a5.0804 5.0804 0 0 0 1.16 1.889 4.92 4.92 0 0 0 1.863 1.174 7.2937 7.2937 0 0 0 2.375.391 6.4659 6.4659 0 0 0 4.633-1.735 5.7124 5.7124 0 0 0 1.838-4.333 6.083 6.083 0 0 0 -.183-1.528 4.5634 4.5634 0 0 0 -.491-1.236 4.8997 4.8997 0 0 0 -1.105-1.299 5.285 5.285 0 0 0 -1.795-.949 7.743 7.743 0 0 0 -2.434-.359 7.3259 7.3259 0 0 0 -2.576.419 5.9969 5.9969 0 0 0 -2.021 1.246 4.8704 4.8704 0 0 0 -1.276 1.863 6.5432 6.5432 0 0 0 .012 4.457"/><path d="m41.357 31.538h-8.717v9.819c0 4.504 1.567 7.643 4.301 9.826l-.002-1.375a10.467 10.467 0 0 1 -2.295-7.242v-2.571h3.301v11.212c0 4.088-1.147 9.295-8.447 12.557-6.937-3.1-8.319-7.956-8.439-11.94 3.272-2.197 5.176-5.502 5.176-10.467v-1.362h5.349v-2.023h-5.349v-.001h-2.004v.001h-5.194v11.784c0 .41205.011.812.033 1.205v.001a11.078 11.078 0 0 0 1.98-1.63v-9.337h3.181v2.571c0 3.407-.629 7.629-6.713 10.348-6.084-2.719-6.714-6.941-6.714-10.348v-9.022h13.427v3.453h2.004v-5.459h-17.434v9.819c0 6.553 3.316 10.213 8.717 12.256q.915-.34506 1.749-.757c.933 5.954 4.656 9.497 10.231 11.607 5.558-2.102 9.275-5.631 10.222-11.552q.783.37948 1.637.702c5.4-2.043 8.717-5.703 8.717-12.256v-9.819zm6.713 11.028c0 3.406-.629 7.629-6.713 10.348a16.288 16.288 0 0 1 -1.531-.78 20.524 20.524 0 0 0 .133-2.3781v-11.784h-5.315v-4.428h13.426z" fill="#0067b1"/></svg>