<svg enable-background="new 0 0 260 80" viewBox="0 0 260 80" xmlns="http://www.w3.org/2000/svg"><path d="m3.86 57.87c0-7.95 0-15.92 0-23.88.27-.31.61-.22.92-.22 6.83-.01 13.67-.01 20.5 0 1.28 0 2.55.14 3.8.44 2.69.66 4.28 2.26 4.65 4.7.4 2.6-.53 4.54-2.94 6.06.31.39.79.3 1.17.42 2.77.81 4.18 2.56 4.28 5.35.12 3.41-1.07 5.45-3.81 6.47-1.75.65-3.57.83-5.42.84-7.43.01-14.86 0-22.3 0-.27 0-.56.05-.85-.18zm5.03-4.2c.22.04.34.08.45.08 5.68 0 11.35.02 17.03-.01 1.07-.01 2.16-.09 3.15-.59 1.05-.52 1.49-1.38 1.47-2.53-.02-1.14-.62-1.86-1.63-2.28-.98-.41-2.02-.45-3.06-.45-5.16 0-10.31 0-15.47 0-.63 0-1.26 0-1.94 0zm.01-15.56v5.47h6.51c3.23 0 6.47.02 9.7-.01 1.23-.01 2.45-.2 3.08-1.44.82-1.61-.06-3.33-1.89-3.78-1.05-.26-2.14-.24-3.22-.24-4.69 0-9.39 0-14.18 0z" fill="#0d0d0d"/><path d="m170.74 43.53v4.47c-7.55 0-15.09 0-22.7 0v5.43h23.51v4.54c-9.49 0-18.98 0-28.56 0 0-8.02 0-16.05 0-24.15h28.23v4.47c-7.71 0-15.44 0-23.21 0v5.23c7.54.01 15.07.01 22.73.01z" fill="#0d0d0d"/><path d="m110.6 9.88c-1.86 0-3.64 0-5.55 0-.65-2.19-2.54-2.83-4.58-3.1-4.46-.58-8.92-.61-13.37.08-.64.1-1.24.3-1.81.61-.67.37-1.15.89-1.1 1.71.05.83.61 1.27 1.34 1.51 2.07.68 4.24.76 6.38.98 4.52.46 9.1.44 13.57 1.44.86.19 1.67.52 2.49.86 4.78 2 4.16 8.1.95 10.31-2.11 1.46-4.49 2.05-6.97 2.34-5.39.63-10.78.56-16.09-.6-3.84-.84-6.62-2.92-7.43-7.19 1.72-.71 3.55-.07 5.38-.38.63 2.37 2.35 3.26 4.48 3.57 4.73.69 9.47.71 14.21.05.76-.1 1.48-.32 2.16-.68.84-.43 1.41-1.03 1.37-2.05-.04-1.06-.74-1.56-1.6-1.86-1.94-.67-3.99-.79-6.02-.97-3.82-.34-7.66-.39-11.45-1.02-1.7-.28-3.37-.65-4.92-1.44-3.78-1.93-4.22-6.41-.86-9.02 1.88-1.46 4.1-2.12 6.41-2.51 5.01-.83 10.03-.92 14.99.31 2.97.73 5.65 2.03 7.25 4.86.37.66.69 1.33.77 2.19z" fill="#3a6faf"/><path d="m55.71 27c-3.66-.04-7.82-.71-11.69-2.83-7.87-4.3-8.23-15.23.24-19.88 2.72-1.5 5.64-2.19 8.7-2.38 4.37-.27 8.71-.19 12.88 1.36 2.48.92 4.67 2.31 6.28 4.43 1.84 2.42 2.24 5.15 1.86 8.17-.88 7.15-5.99 9.39-12.01 10.64-1.84.39-3.72.47-6.26.49zm.16-20.67c-3.13.04-6.42.37-9.33 2.21-4.31 2.73-4.5 8.3-.39 11.32.94.69 1.96 1.23 3.05 1.63 3.44 1.23 6.98 1.18 10.54.82 2.43-.24 4.69-.96 6.62-2.53 3.89-3.15 3.59-8.51-.61-11.21-2.97-1.9-6.28-2.23-9.88-2.24z" fill="#3a6faf"/><path d="m254.68 58.03c-1.75 0-3.42 0-5.16 0-6.6-5.85-13.22-11.73-20-17.74v17.68c-1.72 0-3.34 0-5.01 0 0-8.04 0-16.05 0-24.13h5.44c6.51 5.83 13.13 11.75 19.97 17.87 0-6.14 0-11.97 0-17.87h4.75c.01 8.01.01 16.04.01 24.19z" fill="#0d0d0d"/><path d="m8.89 26.54c-1.76 0-3.31 0-4.96 0 0-8.04 0-16.03 0-24.01.4-.27.81-.17 1.2-.17 6.23-.01 12.47-.01 18.7.01 1.04 0 2.08.08 3.1.22 4.62.63 6.77 2.73 7.22 7.35.51 5.36-1.53 8.96-7.34 9.82-1.18.18-2.39.22-3.58.23-4.27.03-8.55.01-12.82.01-.44 0-.87 0-1.52 0zm.02-11.19c.25.04.41.09.56.09 4.55 0 9.11.03 13.66-.02 1.31-.01 2.63-.14 3.88-.65 1.6-.67 2.09-1.92 2.08-3.55-.01-1.67-.32-3.1-2.06-3.81-1.4-.57-2.86-.71-4.34-.71-4.23-.01-8.47-.01-12.7 0-.34 0-.72-.11-1.06.21-.02 2.75-.02 5.54-.02 8.44z" fill="#3a6faf"/><path d="m68.1 33.83h4.91c.31.34.16.76.16 1.14.01 3.91-.1 7.83.03 11.74.22 6.08-3 9.38-8.08 10.74-5.24 1.4-10.52 1.44-15.71-.24-4.99-1.62-7.5-5.19-7.51-10.43-.01-3.99 0-7.99 0-11.98 0-.31-.09-.64.16-.97h4.72c.37.39.2.85.2 1.26.01 3.71.13 7.43-.02 11.14-.17 4.07 1.73 6.16 5.47 7.13 3.7.96 7.45 1 11.1-.24 3.28-1.11 4.56-3 4.56-6.45.02-4.23.01-8.46.01-12.84z" fill="#0d0d0d"/><path d="m173.92 33.83h32.24v4.54c-4.48 0-8.94 0-13.51 0v19.63c-1.73 0-3.35 0-5.1 0 0-6.51 0-12.99 0-19.61-4.61 0-9.1 0-13.63 0 0-1.58 0-3.01 0-4.56z" fill="#0d0d0d"/><path d="m145.98 2.42v4.47c-4.5 0-8.94 0-13.49 0v19.6c-1.73 0-3.34 0-5.11 0 0-6.44 0-12.92 0-19.53-4.6 0-9.05 0-13.59 0 0-1.58 0-3.03 0-4.54z" fill="#3a6faf"/><path d="m111.83 33.81h5.02v19.61h20.38v4.56c-8.45 0-16.89 0-25.4 0 0-8.05 0-16.05 0-24.17z" fill="#0d0d0d"/><path d="m81.56 33.83h4.99v19.65h20.36v4.49c-8.43 0-16.85 0-25.35 0 0-8.01 0-16.05 0-24.14z" fill="#0d0d0d"/><path d="m210.75 33.82h5.06v24.15c-1.65 0-3.31 0-5.06 0 0-8.01 0-16.04 0-24.15z" fill="#0d0d0d"/><g fill="#3a6faf"><path d="m234.42 78.21c0-4.42 0-8.57 0-13.01 3.58 2.24 6.96 4.35 10.52 6.57-3.55 2.17-6.96 4.26-10.52 6.44z"/><path d="m245.79 65.21c3.59 2.24 6.94 4.33 10.49 6.56-3.54 2.17-6.94 4.26-10.49 6.44 0-4.36 0-8.55 0-13z"/><path d="m233.58 71.77c-3.6 2.2-6.99 4.28-10.49 6.42 0-4.33 0-8.52 0-12.96 3.5 2.19 6.89 4.3 10.49 6.54z"/><path d="m70.74 71.45c1.64.73 2.15 1.53 1.9 2.92-.22 1.26-1.04 1.97-2.71 2.01-2.94.07-5.89.02-8.92.02 0-3.07 0-6.11 0-9.21.42-.33.96-.15 1.46-.15 2.07-.02 4.15-.01 6.22.01 1.07.01 2.09.23 2.64 1.3.45.89.27 1.85-.59 3.1zm-8.6 3.98c2.54 0 5.04.03 7.54-.01 1.01-.02 1.8-.45 1.84-1.62.03-1.17-.83-1.55-1.73-1.57-2.54-.07-5.08-.03-7.66-.03-.14 1.09-.16 2.1.01 3.23zm-.07-4.29c2.4 0 4.67.02 6.94-.01.85-.01 1.33-.58 1.39-1.38.07-.88-.41-1.51-1.29-1.6-2.33-.23-4.67-.09-7.05-.09.01 1.08.01 1.99.01 3.08z"/><path d="m211.73 67.06h1.39v9.3c-.29.18-.59.16-1-.02 0-2.38 0-4.8 0-7.22-.09-.04-.19-.08-.28-.12-1.61 2.47-3.22 4.93-4.81 7.36-.44.18-.83.13-1.35.07-1.56-2.44-3.17-4.94-4.77-7.43-.07.02-.15.05-.22.07v7.06c-.35.48-.67.32-1.05.32 0-3.12 0-6.2 0-9.34h1.39c1.71 2.67 3.48 5.41 5.33 8.29 1.83-2.86 3.58-5.57 5.37-8.34z"/><path d="m116.79 68.09v3.09h4.54 4.49c.39.28.32.58.17 1.04-3.01 0-6.07 0-9.19 0v3.1h9.25c.51.39.36.7.34 1.07-3.53 0-7.04 0-10.64 0 0-3.09 0-6.17 0-9.33h10.39c.25.3.24.6.04 1.01-3.05.02-6.16.02-9.39.02z"/><path d="m44.6 69.56c-.44.31-.8.14-1.1.18-2.01-2.37-8.21-2.52-9.32-.25.15.87.87 1.09 1.58 1.18 1.54.19 3.09.32 4.64.45.92.08 1.83.21 2.7.51 1.01.35 1.77.97 1.77 2.15 0 1.08-.58 1.85-1.57 2.18-2.93.96-5.89.97-8.79-.13-.97-.37-1.6-1.14-1.73-2.21.34-.29.65-.16.99-.13.35.5.58 1.16 1.21 1.4 2.6.99 5.22.97 7.84.1.5-.16.86-.58.85-1.19s-.4-.94-.89-1.16c-.96-.42-2-.53-3.04-.59-1.52-.08-3.04-.13-4.52-.47-1.01-.23-2.07-.54-2.16-1.88-.07-1.08.61-1.97 1.98-2.36 2.4-.67 4.81-.69 7.2.09 1.06.36 1.89 1.01 2.36 2.13z"/><path d="m23.76 66.86c1.45.03 2.86.21 4.16.9 1.65.88 2.37 2.28 2.34 4.11-.03 1.87-.91 3.23-2.6 3.95-2.61 1.1-5.29 1.12-7.91.04-1.81-.75-2.84-2.15-2.84-4.17.01-2.02 1.06-3.37 2.87-4.15 1.26-.54 2.61-.69 3.98-.68zm-.07 8.72c1.49-.05 2.95-.22 4.17-1.2 1.92-1.55 1.74-4.51-.45-5.61-2.4-1.21-4.97-1.25-7.39-.09-2.59 1.24-2.66 4.44-.23 5.98 1.18.76 2.53.89 3.9.92z"/><path d="m157.8 67.03c.5.04.72.06 1.11.09v4.66 4.49c-.44.31-.83.2-1.27.17-2.76-2.52-5.54-5.06-8.57-7.82-.2 2.78-.11 5.22-.09 7.64-.31.36-.65.21-1.04.16 0-3.1 0-6.16 0-9.22.37-.3.76-.16 1.19-.13 2.8 2.56 5.61 5.14 8.67 7.94 0-2.8 0-5.31 0-7.98z"/><path d="m189.65 66.86c1.36.01 2.71.16 3.97.73 1.8.81 2.74 2.31 2.68 4.27-.06 1.95-1 3.34-2.82 4.04-2.56.99-5.15 1.02-7.69-.03-1.82-.75-2.83-2.15-2.86-4.17-.02-1.9 1.08-3.45 2.97-4.21 1.2-.47 2.46-.63 3.75-.63zm-.07 1.09c-1.15-.04-2.41.09-3.58.7-2.45 1.28-2.67 4.57-.28 5.93 2.52 1.44 5.2 1.42 7.78.05 1.19-.63 1.75-1.73 1.68-3.08-.06-1.35-.78-2.31-1.97-2.92-1.1-.56-2.27-.7-3.63-.68z"/><path d="m180.84 70.45c-.39.24-.67.17-.94.14-2.14-2.69-6.04-3.52-9.12-1.91-1.19.62-1.87 1.61-1.9 2.97-.03 1.31.55 2.32 1.7 2.94 2.32 1.25 4.74 1.28 7.18.41.94-.33 1.62-1.01 1.93-1.93.41-.16.75-.22 1.14.05-.31 1.62-1.4 2.56-2.87 3-2.47.74-4.97.73-7.4-.23-1.71-.68-2.68-1.94-2.79-3.82-.11-1.94.62-3.48 2.4-4.31 2.79-1.29 5.65-1.3 8.45.02 1.09.52 1.92 1.37 2.22 2.67z"/><path d="m3.72 67.09c2.74 0 5.33-.09 7.91.03 2.12.09 3.04 1.2 3.03 3.22-.01 1.83-1.07 2.94-3.12 3.02-2.19.09-4.38.02-6.59.02-.38.99-.07 1.96-.23 2.91-.29.28-.62.23-1 .03 0-3.03 0-6.08 0-9.23zm1.09 5.27c2.32 0 4.54.06 6.76-.02 1.33-.05 1.92-.73 1.98-1.93.06-1.26-.59-2.2-1.92-2.27-2.25-.12-4.51-.03-6.81-.03-.01 1.42-.01 2.75-.01 4.25z"/><path d="m85.86 67.22c.42-.19.69-.21.99-.08.04.09.13.2.13.3.01 1.76.06 3.51 0 5.27-.05 1.76-1.02 2.91-2.66 3.45-2.03.67-4.1.65-6.12-.04-1.44-.49-2.42-1.5-2.5-3.05-.1-1.94-.02-3.9-.02-5.8.34-.3.63-.25.95-.09.04.1.11.21.11.32.01 1.48.01 2.95.01 4.43.01 1.96.68 2.91 2.53 3.4 1.49.4 3.01.4 4.49-.12 1.52-.53 2.1-1.36 2.11-2.95-.01-1.68-.02-3.35-.02-5.04z"/><path d="m134.58 76.25c-.49.26-.79.26-1.21.06 0-2.63 0-5.32 0-8.15-1.84 0-3.57 0-5.18 0-.39-.42-.35-.7-.15-1.06h11.7c.34.19.21.51.2.95-1.78 0-3.51 0-5.35 0-.01 2.83-.01 5.52-.01 8.2z"/><path d="m51.86 68.07c-1.9 0-3.6 0-5.18 0-.39-.34-.3-.61-.17-.95h11.65c.19.3.12.6.04.99-1.69 0-3.35 0-5.13 0v8.05c-.42.43-.76.29-1.21.24 0-2.74 0-5.43 0-8.33z"/><path d="m100.44 75.38c.3.4.29.66.12 1.01-3.1 0-6.22 0-9.39 0 0-3.08 0-6.14 0-9.17.34-.25.63-.21 1.07-.01v8.17z"/><path d="m103.24 76.42c0-3.16 0-6.18 0-9.17.33-.27.62-.25 1.04-.03v8.14h8.26c.24.42.25.71.07 1.05-3.08.01-6.18.01-9.37.01z"/><path d="m142.48 67.23c.34-.25.63-.22 1-.04v9.1c-.34.23-.64.19-1 .05 0-3.01 0-6.02 0-9.11z"/><path d="m163.36 74.64c.5-.17.87-.13 1.25-.03.2.59.1 1.14.08 1.7-.41.28-.84.16-1.34.11.01-.59.01-1.16.01-1.78z"/></g></svg>