<svg viewBox="0 0 637.4 246" xmlns="http://www.w3.org/2000/svg"><g fill="#8c1515"><path d="m308.4 117.8c-15.9 0-17.2-12.1-17.2-15.7 0-4.2 1-12.1 11.3-15.9 10.4-3.8 12.6-4.2 20-6.6v-1.8c0-3.6 0-4.2-.8-6.6-1.3-4.1-5.3-6.9-10.9-6.9-5.3 0-9.8 3-11.9 7.4l-3-1.8c1.8-6.6 8.6-13.1 20.2-13.1 8 0 13.6 2.3 16.9 7.4 2.5 4.1 2.8 9.6 2.8 15.2 0 5.1-.3 10.7-.3 15.2 0 3-.3 5.9-.3 7.5 0 4.1.8 7.4 4.1 7.4 1.5 0 1.8-.5 3-1.3l1.8 2.3c-3 4.1-6.6 7.4-12.4 7.4-4.5 0-7.8-2.3-9.2-6-2 2.6-6.8 5.9-14.1 5.9zm14-31c-7.8 2.3-10.7 3.6-12.9 4.8-3.6 1.8-5.1 5.1-5.1 9.3 0 3.3 1.3 8.6 8.9 8.6 2.5 0 6-.5 9.3-2.8v-20zm-131.6 27.8c0-5.9 0-10.9-.5-16.9h3.6c0 3.8 1 6.6 2.8 8.3 2.5 2.8 8.3 4.5 13.6 4.5 11.1 0 16.4-4.2 16.4-13.4 0-7.8-4.8-11.1-11.3-15.7l-1-.8-7.1-4.8c-9.8-6.6-14.9-11.6-14.9-22 0-5.1 2-21.8 26.5-21.8 6.3 0 14.4.8 19.2 1.5 0 .8-.3 4.5-.3 7.8 0 3.8 0 4.8.3 9.3h-3c0-4.1-1.3-6.6-3-8.3-2.3-2.3-7.5-3.6-13.1-3.6-13.1 0-14.6 6.6-14.6 11.6 0 6.9 3.6 9.3 11.3 14.4l8.9 5.9c7.5 5.1 14.6 9.8 14.6 22.5 0 21.2-20 23.5-28.3 23.5-7.7 1.2-14.1 0-20.1-2zm158.7-54c3 .3 7.5 0 11.9-.8 3.8-.8 5.1-1.3 7.8-2.5l1.3.8v4.5c3-2.3 8.9-5.6 17.2-5.6 10.7 0 17.5 5.1 19.4 13.9.5 2.3.8 7.5.8 10.7v17.2c0 9.6.5 12.4 2.3 14.2 1 .8 3 1.8 5.9 1.8v2.8c-3.8-.3-10.7-.5-14.6-.5-5.3 0-11.3.3-14.6.5v-2.8c3-.3 4.8-1.3 5.9-2 1.8-1.8 2-5.1 2.3-12.4 0-2.3.3-6.9.3-10.1 0-4.2 0-8.9-.5-13.4-.8-7.5-4.8-11.1-12.4-11.1-5.3 0-8.6 1.3-11.1 2.5v30.8c0 9.6.5 12.4 2.3 14.2 1 .8 3.3 1.8 5.6 1.8v2.8c-4.8-.3-10.7-.5-14.4-.5-7.8 0-10.4.3-14.9.5v-2.9c2.5 0 5.1-1 6.3-2.5 1.8-2 2-7.1 2-16.9v-17.6c0-7.4-.3-10.4-1.3-11.9-.8-1.3-2.8-2.3-6.9-2.3v-3.3h-.5v.1zm73.1 53.9c2.5 0 5.1-.8 6.3-2.5 1.8-2 2-7.1 2-16.9v-29.4h-7.5v-3.3c3.3-1.3 6-2.8 7.5-4.1 0-5.3.3-11.9 1-15.7 2.3-12.1 10.1-18.2 23.5-18.2 5.9 0 11.3 2 14.9 4.8l.3 1.3-5.9 8h-1.5c-2-4.8-5.1-7.5-10.4-7.5-1.8 0-4.2.5-5.9 2-2.5 2.5-3 6.3-3 13.9v11.3h13.1v7.4h-13v32.6c0 7.8.3 11.6 1.3 13.1 1.5 2.5 6.9 2.8 9.3 2.8v3c-4.2-.3-11.1-.5-15.9-.5-7.4 0-12.1.3-15.9.5zm67.7 3.7c-17.9 0-28.5-11.1-28.5-29.8 0-14.6 7.8-31.6 29.8-31.6 17.9 0 28.5 11.1 28.5 29.8 0 14.6-7.9 31.6-29.8 31.6zm.8-54.6c-3.6 0-6.3 1-8.3 2.8-4.8 4.1-7.1 11.1-7.1 21.5 0 4.1.8 23.8 15.2 23.8 3.6 0 6.3-1 8.3-2.8 4.8-4.1 7.1-11.1 7.1-21.5-.1-4.1-.8-23.8-15.2-23.8zm35-3.3c4.1.3 8.3-.3 12.9-1 3.6-.5 5.9-1.3 7.1-2l1 .5v5.1c2.8-2.8 7.4-5.6 13.6-5.6 4.5 0 7.5 1.3 10.4 3.6v1.8l-5.1 9.2h-2.5c-1.5-2.8-4.5-5.3-9.8-5.3-2.5 0-4.5.5-6.3 1.8v30.1c0 7.8.3 11.3 1.3 12.9 1.5 2.5 6.6 2.8 9.3 2.5v3.3c-4.1-.3-11.1-.5-15.9-.5-5.6 0-11.3 0-15.9.5v-3c3.3-.3 5.1-1 6.3-2.5 1.8-2 2-6.9 2-16.9v-16.5c0-7.4 0-10.4-1.3-11.9-1-1.3-3-2-6.9-2v-3.8zm82.7-32.3c3.6 0 8-.8 13.9-1.8 3.3-.5 5.3-1.3 6.3-1.5l1 .5c-.5 4.8-.5 15.7-.5 23.5v48c0 7.1 0 11.6 1 13.1 1 1.3 3 2.3 6.9 2.3v3c-3.8 0-8 .5-12.6 1.3-3 .5-5.3 1-6.6 1.5l-1.5-.5v-5.1c-3 2.3-8.6 5.6-16.4 5.6-16.2 0-26.5-11.1-26.5-28.5 0-5.9 1-11.1 3-15.9 5.1-10.7 15.2-16.7 28-16.7 4.8 0 8.9.5 11.3 1v-12.6c0-7.4 0-11.1-1.3-12.9-.8-1.3-2-1.8-6.3-2v-2.4zm-2 81.6c4.1 0 6.9-.5 9.6-2.3v-39.4c-1-1-4.5-4.1-11.6-4.1-11.3 0-16.9 7.8-16.9 24.1-.3 6.8 1.7 21.7 18.9 21.7zm-321.5 1.8c-1.8 2.3-6.3 6.9-15.9 6.9-9.2 0-14.2-3.3-16.4-10.7-1-2.8-1-8.6-1-11.9 0-9.3 0-16.9.3-25.8v-4.1h-7.9v-2.3c3-1.3 5.3-2.5 7.4-4.1 4.5-3.6 7.5-7.8 10.9-14.2h2.5v13.1h20v7.4h-20v30.8c0 9.3 1.8 14.4 10.4 14.4 4.1 0 6.9-1.3 8.3-2.3z"/><path d="m517.9 164.7c-1 0-2.3.3-3 1-.8.5-.8 1.3-.8 1.8 0 1 .3 1.8 1 3.8l5.6 14.6c.8 2.3 1.5 4.1 1.8 5.3l6.9-20c.8-2.3 1-2.8 1-3.8 0-.5-.3-1-.8-1.5-.8-.5-1.8-1-3-1v-2.3c.8 0 2.5 0 3.3.3.8 0 2.3.3 3.6.3 2.5 0 6-.3 7.5-.3v2.3c-1 .3-3.3-.3-5.3 5.6l-14.4 38.4c-2 5.6-4.8 12.4-14.6 12.4-4.1 0-6.9-1-9.2-3v-1l3.6-4.2h1c1 2.3 3 3.3 5.9 3.3 4.5 0 6.6-4.1 9.6-12.1l.8-2.3-12.1-31.5c0-.3-.3-.8-.5-1.3-.3-.8-1-2.3-1-2.3-.8-1.5-2-2-3.6-2v-2.3c2.3.3 6.3.3 8.3.3 1.3 0 3.3 0 5.3-.3 1 0 2.8-.3 3.6-.3v2h-.4v.1zm-133.8-.5c2.5.3 5.3-.3 8-.8 2.3-.5 3.6-.8 4.5-1.3l.8.3v3.3c1.8-1.8 4.5-3.6 8.6-3.6 3 0 4.8.8 6.6 2.3v1.3l-3 5.9h-1.5c-1-1.8-2.8-3.3-6.3-3.3-1.5 0-2.8.5-4.1 1.3v19c0 5.1.3 7.4.8 8.3 1 1.5 4.1 1.8 5.9 1.8v2c-2.5-.3-7.1-.3-10.1-.3-3.6 0-7.4 0-10.1.5v-2c2 0 3.3-.8 4.1-1.5 1.3-1.3 1.3-4.2 1.3-10.9v-10.7c0-4.5 0-6.6-.8-7.5-.5-.8-2-1.3-4.2-1.3v-2.8h-.4zm-168.3 36.6c-10.7 0-16.9-3.3-19.2-10.4-1.3-3.6-1.3-8-1.3-11.6v-20.2c0-6-.3-7.1-1.5-8-.5-.5-1.8-1-3.6-1.3v-2c2.5.3 6.9.5 9.3.5 4.2 0 6.9 0 9.6-.5v2.3c-1.8 0-3 .5-4.1 1.5-1.3 1.3-1.3 3.6-1.3 10.1v17.9c0 10.7 1 17.5 12.9 17.5 12.1 0 12.9-7.1 12.9-17.9v-19.7c0-6-.3-7.1-1.5-8-.8-.5-2-1-3.6-1.3v-2c2.3 0 5.3.3 8.3.3 2.8 0 5.6 0 8.9-.5v2.3c-1.8 0-3 .5-4.1 1.5-1.3 1.3-1.3 3.6-1.3 10.1v15.2c0 4.8 0 10.1-1.5 14.4-2.2 6.6-8.3 9.8-18.9 9.8zm72.1-2.3c2-.3 3.3-.5 4.2-1.5 1.3-1.3 1.3-4.2 1.3-10.9v-10.7c0-4.5 0-6.9-.8-7.8-.5-.8-1.5-1.3-4.2-1.5v-2.3c1.5.3 5.6-.3 8.6-.8 1.5-.3 3-.8 4.1-1.3l.8.8c-.3 2.5-.3 7.8-.3 14.9v10.9c0 5.1.3 7.4.8 8.3.8 1 2.3 1.8 4.5 1.8v1.8c-2-.3-5.9-.3-9.2-.3-3.8 0-7.8.3-9.8.5zm9.3-43.2c-3 0-4.8-1.8-4.8-4.5s2-4.8 5.1-4.8c3 0 4.8 1.8 4.8 4.5-.1 3-2.1 4.8-5.1 4.8zm150.4 43.2c2-.3 3.3-.5 4.2-1.5 1.3-1.3 1.3-4.2 1.3-10.9v-10.7c0-4.5 0-6.9-.8-7.8-.5-.8-1.5-1.3-4.2-1.5v-2.3c1.5.3 5.6-.3 8.6-.8 1.5-.3 3.3-.8 4.1-1.3l.8.8c-.3 2.5-.3 7.8-.3 14.9v10.9c0 5.1.3 7.4.8 8.3.8 1 2.3 1.8 4.5 1.8v1.8c-2.3-.3-6-.3-9.3-.3-3.8 0-7.8.3-9.8.5v-2h.1zm9.3-43.2c-3 0-4.8-1.8-4.8-4.5s2-4.8 5.1-4.8c3 0 4.8 1.8 4.8 4.5 0 3-2.1 4.8-5.1 4.8zm-39.9 43.7c0-3.8-.3-7.8-.5-9.8h2.5c0 2 .5 3.8 1.5 4.8 1.5 1.8 3.3 2.5 6.6 2.5h.5c4.1 0 6.3-1.8 6.3-5.3 0-2.8-1.8-4.1-4.8-5.9l-5.3-3.3c-2.8-1.8-6-4.2-6-9.6 0-4.2 1.8-7.5 5.3-9.3 2.3-1.3 5.9-1.3 7.5-1.3 3 0 7.4.5 9.8 1-.3 1-.3 3.6-.3 4.5 0 .8 0 4.2.3 5.1h-2.5c0-1.5-.5-3-1.5-4.2-1-1.3-3.3-2-6-2-3.8 0-5.9 1.5-5.9 4.8 0 2.5 2 3.8 3.8 5.1h.3l5.1 3c3.3 2 7.5 4.5 7.5 10.4 0 9.8-9.2 11.3-14.4 11.3-3-.3-6.2-.5-9.8-1.8zm79.3-2.4c-1.3 1.3-4.1 4.2-10.1 4.2-5.9 0-9.2-2-10.4-6.9-.5-1.8-.5-5.6-.5-7.5 0-6 0-10.9 0-16.4v-2.5h-5.1v-1.5c2-.8 3.3-1.5 4.8-2.5 2.8-2.3 4.8-5.1 7.1-9.2h1.8v8.3h12.6v4.5h-12.6v19.9c0 5.9 1 9.3 6.6 9.3 2.5 0 4.2-.8 5.3-1.5zm-170.9-33.9c-.8 0-2.5 0-3.6.3-2 0-4.1.3-5.6.3-2.8 0-6.9-.3-8-.3v2.3c.5 0 2.5-.3 3.8 2.3.5 1 .8 1.8 1 2.3.3.5.5 1 .5 1.3l12.1 30.3 3.8-.8 13.4-29.8c0-.3.3-.5.5-1 .3-.3.3-.8 1.3-2.3.8-1.5 2.5-2.3 3.8-2.3v-2.3c-1.5 0-4.8.3-7.4.3-1.3 0-2.5 0-3.8-.3-1 0-2.5-.3-3.6-.3v2c1.3 0 2.5.5 3 1 .3.3.8 1 .8 1.5 0 .8-.3 1.5-1 3.8l-7.4 17.9c-.3-1-.8-2.5-1.5-4.5l-5.1-13.4c-.8-2-1-2.8-1-3.8 0-.5 0-1 .5-1.3.8-.8 2-1.3 3.3-1.3v-2 .1zm-82.5 1.5c2 .3 4.8 0 7.5-.5 2.3-.5 3.3-.8 5.1-1.5l.8.5v3c1.8-1.5 5.9-3.6 10.9-3.6 6.9 0 11.1 3.3 12.4 8.9.3 1.5.5 4.8.5 6.9v10.9c0 6 .3 7.8 1.5 9.2.5.5 2 1 3.6 1v1.8c-2.5 0-6.9-.3-9.3-.3-3.6 0-7.4.3-9.3.5v-2c1.8-.3 3-.8 3.8-1.3 1-1 1.3-3.3 1.5-7.8 0-1.5 0-4.2 0-6.6 0-2.8 0-5.9-.3-8.6-.5-4.8-3-7.1-7.8-7.1-3.3 0-5.6.8-7.1 1.5v19.8c0 6 .3 7.8 1.5 9.2.5.5 2 1 3.6 1v1.8c-3.3-.8-7.1-.8-9.6-.8-5.1 0-6.6 0-9.3.5v-1.8c1.5 0 3.3-.5 4.1-1.5 1-1.3 1.3-4.5 1.3-10.9v-10.7c0-4.5 0-6.6-.8-7.5-.5-.8-1.8-1.5-4.2-1.3v-2.8zm122.8 36.6c-11.3 0-17.5-6.6-17.5-18.5 0-2 .5-20.5 17.7-20.5 5.1 0 9.6 2 11.6 5.6 2.3 3.6 2.5 7.1 2.5 10.1v2.3h-23.5c0 2 .3 3.6.5 4.8 1.3 7.4 5.3 10.9 12.4 10.9 4.1 0 6.6-.8 8.9-2.3l1 1.8c-2.5 3.4-7.5 5.8-13.6 5.8zm-9.1-25.2h14.6c0-4.5-.8-9.6-7.4-9.6-5.7.3-6.9 5.7-7.2 9.6z"/><path d="m34.6 0-34.6 33.8v90.9l30 30.7h13.8c-.3.9-.8 2.3.2 3.7 1 1.5 2.8 1.5 3.5 1.5.8 0 1.9-.1 3.7-.3s.7.6-1.5 1.4c-1.8.6-3.4 1.7-3.9 3.5 0 .1 0 .3-.1.4h-45.7v46.5l34.6 34h90.9l34.6-33.9v-87.2l-30-30.6h-25.5c-1.1-.7-2.3-1.4-3.3-2.1l-.4-.2h-.1c-.6-.4-1.2-.8-1.8-1.4-.6-.5-1-.9-1.4-1.3l-.1-.1c-.7-.7-1.3-1.4-1.7-2 4 1.1 8.3 1.4 10.4 1.5h.2.4.2c.5 0 .9.1 1.1.2.3.1.5.2.7.3l1.1.4c.3.1.5.1.8.1 1.6 0 3-.9 3.7-2.4.2-.5.6-1.5.3-2.8h45.4v-50.7l-34.7-33.9z"/></g><path d="m155.9 35.7-32.1-31.5h-87.6l-32.1 31.4v87.4l27.6 28.2h17.8c-2 1.8-2.6 3.7-2.9 4.6-.7 2-1.4 2.6 4.8 1.7 2-.3 5.6-1.6 7.3-2.7s4.9-.2 4.7 2.2c-1.5 3.8-5.5 6.1-9.3 6.6-8.7 1.1-4.9 4.3-4.9 4.3 1 .7 1.6 1.3 2.1 1.9h-4.2-43v40.5l32.1 31.5h87.6l32.1-31.5v-83.5l-27.6-28.1h-22.3c-1.8-1.2-4.2-2.5-6.4-3.9-.8-.5-1.7-1.1-2.4-1.8-.7-.5-1.2-1.1-1.7-1.6-1.9-2-3.4-4.1-3.8-5.1-.7-1.8-.6-4 1.1-3.1 4.1 2.4 10.9 2.8 13.4 2.9.3 0 2.3.2 2.8.4s1.3.6 1.3.6c1 .4 2.9-1 .7-3.6-.6-.9-1.4-1.9-2.4-3h47.4z" fill="#fff"/><path d="m37.9 8.4-29.6 29v83.8l25.2 25.8h23.7c4-1.8 4.9-1.6 6-3.9.2-.4.3-1.4.4-2.4.1-.3.6-3.3-.9-2.6-2.5 1.3-7.6-2.1-11.5-.1-3.8 2-1-2.6-.5-3.4 0 0 2-2.7 5.1-4.5.1-.1.2-.1.3-.2.3-.2.6-.3.9-.5 2.3-1.1 9-5.6 10.2-6.9.7-.8 2-2.7 2-3.7.2-.9.4-2.3-.5-2.8-1.3-.8-2.3.8-4.3 1.7s-3.5 1.3-5.3 1.3c-1.7.1-3.4-.6-4.4-.4s-1.6-.6.3-2.5c.9-.9 1.2-1.2 1.6-1.5 4.5-2.9 8.5-2.9 10.7-8 0 0 1.7-4.6-1.6-2.6-1.8 1.1-2.9 2.6-8.1 2.6-5.3 0-7.3 2.5-8.2 3.6 0 0-3.6 5-2.7-2s2.3-10.6 5.6-13.3c2.9-2.3 9.9-5.5 12.5-9 1.3-1.3 4.6-5.1 2.7-8.2-.8-1.3-2.8 2.1-4.8 2.6-2.3.6-5.3 1.4-7.5.9-2.8-.6-4.6.5-5.6 1s-3-1-.6-3.8c3.2-3.7 11-8.5 16.2-11.3.7-.3 2.5-1.1 4.1-2.1h.1c.4-.2 1-.5 1.3-1 1.1-1 1.9-2 1.7-3.1-.2-1-.7-1.3-2.3-1.5-1.2-.1-3.3 1.3-5 1.2-2.6-.2-6.5.4-5.2-1.5 1.2-1.7 3.1-2.8 3.7-3.1 1.1-.5 2.5-1.1 4.6-2.1 3.3-1.5 2.9-5.3 1.6-5.4-2-.2-7.4 1.5-3.6-2.8 0 0 1.8-1.8 3.6-3 1.4-.8 2.6-1.2 4.1-1.7.9-.3 3.2-2.4-2.3-2.6 0 0-3.1.1-2.5-1.3.5-.9 3.2-2.7 3.2-2.7s2.2-1.5 3.1-2.4c.9-.8 1.5-1.5 1.4-2.2 0-.8-2.2-1.9-3.1-3.1-.7-.8-.1-1.1.3-1.2.2 0 .4-.1.7-.1 2.2 0 2.9-2.2 4.2-8.1.4-1.7.4-2.1 1-2.1h.1s.6 3 1.4 6.3c.7 1.8 1.4 2.6 2.8 2.6.3 0 .5 0 .7.1.4.1.9.4.3 1.2-.5.7-2 1.7-2.1 2.3-.4 1.8 1.3 2.5 3.1 2.6 2.5.2 1.5 1.7-1.2 3.7-2.6 1.9 4.1 6.1 4.1 6.1 3.8 2.9 1.1 3.7.3 4.1s-2.9 1.7-.8 2.5c2.2.8 5.1 3.8 5.1 3.8 3.8 4.4-1.6 2.6-3.6 2.8-1.3.1-1.8 3.9 1.6 5.4 5.1 2.3 6.2 2.7 8 4 3.4 2.5 1.6 4.6-2.6 3.9 0 0-2.7-.7-4.6-.3-1.2.2-2 .5-2.5.8-.3.4-1 2.2 4.9 4 2.8.9 6.2 3 9.3 5.4h47.8v-38.8l-29.9-29.3zm72.2 94.4c1.4 2.3 2.2 5.3 2.8 9.6 0 2.6-3.5 1.4-4.6.7-.8-.5-1.8-1-3.2-1.4-2.5-.6-8.6-3.3-10.2-3.8-1.7-.6-2.9.6-3.1 1.1-.4.8.5 2.4.5 2.4 2.4 5.4 6.7 5.1 11.5 8.5 6.6 4.7 3.1 5.7 1.7 5-1.3-.7-3.6-.3-3.6-.3-5.3 1.5-6.9-.8-10-1.6s-.6 3 .6 4.3c1.2 1.4 7.9 5.9 10.2 6.9 5.1 2.4 7.7 6.2 9.3 11.1 1.5 4.6-.1 3.6-1.3 3s-1.6-1.8-4.6-1.7-4.7-.2-6.9-1.8c-.6-.4-1-.9-1.4-1.4 0 0 0 0-.1 0-2.1-1.6-1.7 3.7-1.2 4.5 1.5 3 2.5 1.8 11.1 6.4 4.1 2.2 5 5.1 5.5 6.3.7 2 1.4 2.6-4.8 1.7-2-.3-5.6-1.5-7.3-2.7-1.6-1.1-4.9-.2-4.6 2.2 1.5 3.8 5.5 6.1 9.3 6.6 3.3.4 4.8 1.1 5.4 1.9 1.8 2.1-1.5 5.1-1.5 5.1-1.7 1.9.1 4.2 1.4 4.9 2 1 5.9 3.4 7.2 6.7 6.8 17.4.2 12.4-3 10.4s-9.3-7.1-14.9-6.7-7.4.7-10.8-1.9c-3.3-2.6-3 1.6-3 1.6v21c.2 4.7 1.1 9.2 4.8 13 3.1 3.1 5.4 2.6 9.7 7.8 2 2.4 8.5 5 12.8 5.1h8.3l29.6-29.1v-80l-25.2-25.7zm-101.8 71.2v34.5l29.6 29.1h9.5c9-.4 12.3-7.4 15-11.7 2-3.2 5.7-6 8-8.3 2.4-2.5 2.9-8.1 2.9-14.2v-12.7.1-3-2-.5-5.5c0-1.3-1.5-1.4-4.7 2.1s-8.7 3.2-11.8 3.5-12.2 5-14.7 8.4c-1.6 2.1-3.9.4-2.9-3.8.4-1.9 1.2-4.4 2.5-7.7 1.8-4.6 8.5-7.3 8.5-7.3s.7-.3 1.3-.9z" fill="#8c1515"/></svg>