<svg viewBox="0 0 126 28" xmlns="http://www.w3.org/2000/svg"><g fill="#510c76"><path d="m126 16.2c-1.2-1.4-2.9-2.2-4.7-2.1-2.8 0-5.1 1.1-5.1 3.7 0 4.3 7.1 2.7 7.1 4.7 0 .6-.9 1.3-2.2 1.3-1.3.1-2.5-.4-3.3-1.4l-2.1 1.6c1.5 1.5 3.5 2.2 5.5 2.1 2.6 0 5.1-1.2 5.1-4 0-4.3-7.2-2.6-7.2-4.6 0-.7.8-1.1 2.1-1.1 1.2-.1 2.3.6 2.9 1.6zm-14.2 5.6c0 1.5-1.7 2.1-2.9 2.1-1 0-1.8-.6-1.8-1.4 0-1.1.9-1.4 1.9-1.6l1.5-.3c.5-.1.9-.2 1.3-.4zm2.7-3.9c0-3.3-2.5-3.8-4.9-3.8-2.5 0-4.9 1-4.9 3.7l2.8.1c0-1.2.5-1.7 2.1-1.7 1.2 0 2.2.3 2.2 1.5v.3c-1 .3-2 .5-3 .7l-1.2.2c-1.7.3-3.5 1.3-3.5 3.6 0 2 1.6 3.6 3.6 3.6h.3c1.4 0 2.7-.5 3.7-1.3 0 .4.1.7.3 1h2.9c-.3-.6-.5-1.3-.4-1.9zm-28.8 8h2.8v-6c0-1.6.9-3.1 2.4-3.1 1.3 0 1.9.9 1.9 2.2v7h2.8v-6c0-1.6.9-3.1 2.5-3.1 1.3 0 1.9.9 1.9 2.2v7h2.8v-8.1c0-2.5-1.5-3.7-4-3.7-1.4 0-2.7.6-3.5 1.7-.7-1.2-2-1.9-3.4-1.7-1.3 0-2.5.5-3.3 1.4v-1.1h-2.8v11.3zm-6.9-9.2c2 0 3 1.7 3 3.5s-1 3.5-3 3.5-3-1.7-3-3.5 1-3.5 3-3.5zm0-2.5c-3.7 0-5.9 2.6-5.9 6s2.2 6 5.9 6 5.9-2.6 5.9-6-2.2-6-5.9-6zm-17.7 11.7h2.8v-5.9c0-1.4.6-3.2 2.7-3.2 1.4 0 2 .7 2 2.3v6.8h2.8v-7.6c0-3.3-2.2-4.1-4.2-4.1-1.3-.1-2.5.4-3.3 1.4v-5.8h-2.8zm-8.5 0h3v-13.3h4.4v-2.8h-11.9v2.8h4.4zm-7.9 0h3v-3.1h-3zm-6.5-11.5h-1.7v2h1.7v6.8c0 1.7.8 2.8 3 2.8.7 0 1.5-.1 2.2-.3v-2.3c-.4.1-.8.1-1.2.1-1.1 0-1.2-.5-1.2-1.4v-5.8h2.5v-2h-2.5v-4.1h-2.8zm-16 8.5c1.6 2.2 4.2 3.5 7 3.4 3.4 0 7.1-1.4 7.1-5.3 0-3.1-2.3-4-4.7-4.6l-2-.4c-1.8-.4-3.3-.7-3.3-2.1 0-1.1 1.3-1.8 3.1-1.8 1.7-.1 3.4.8 4.2 2.3l2.5-1.9c-1.6-2.1-4.1-3.3-6.7-3.2-3 0-6.3 1.6-6.3 5 0 3 2.3 3.9 4.8 4.5l1.8.4c2.1.5 3.3.9 3.3 2.1 0 1.6-1.9 2.1-3.4 2.1-1.9.1-3.8-.8-4.9-2.4z"/><path d="m77.2 6.2h.9v-2h2v-.8h-2v-1.2h2.3v-.8h-3.2zm-3.9-4.9c-1.3 0-2.3 1.1-2.3 2.4v.2c-.1 1.3.8 2.4 2.1 2.5s2.4-.8 2.5-2.1c0-.1 0-.3 0-.4.1-1.3-.9-2.4-2.1-2.5-.1-.1-.2-.1-.2-.1zm0 .8c1 0 1.4.8 1.4 1.7s-.4 1.7-1.4 1.7-1.4-.8-1.4-1.7.4-1.7 1.4-1.7zm-7.5 4.1h.9v-1.9l1.6-2.9h-1l-1 2-1-2h-1l1.6 2.9zm-4.9 0h.9v-4h1.3v-.8h-3.5v.8h1.3zm-3.7 0h.9v-4.8h-.9zm-5.8-.9c.5.7 1.3 1 2.1 1 1 0 2.1-.4 2.1-1.6 0-.9-.7-1.2-1.4-1.4l-.6-.1c-.5-.1-1-.2-1-.6 0-.3.4-.5.9-.5s1 .2 1.3.7l.7-.6c-.5-.6-1.2-1-2-1-.9 0-1.9.5-1.9 1.5 0 .9.7 1.2 1.4 1.3l.5.1c.6.1 1 .3 1 .6 0 .5-.6.6-1 .6-.6 0-1.1-.3-1.5-.7zm-3.8-3.1h.8c.6 0 .9.3.9.7s-.3.7-.7.7h-.1-1zm-.9 4h.9v-1.8h.9l.9 1.8h1l-1.1-1.9c.6-.2 1-.8 1-1.4 0-.8-.6-1.5-1.4-1.5-.1 0-.1 0-.2 0h-2zm-5.1 0h3.6v-.8h-2.7v-1.3h2.3v-.8h-2.3v-1.1h2.5v-.8h-3.4zm-4 0h1.2l1.4-4.8h-.9l-1.1 3.8-1.1-3.8h-.9zm-3.7 0h.9v-4.8h-.9zm-5.6 0h.8v-3.4l2 3.4h.9v-4.8h-.8v3.4l-2-3.4h-.8zm-1.8-4.8h-.9v3.1c0 .6-.2 1-1 1s-1-.4-1-1v-3.1h-.9v3.3c0 1 .8 1.6 1.9 1.6s1.9-.6 1.9-1.6z"/><path d="m18.7 11c-.2 0-.3.1-.4.2-.6.5-1.5.5-2.1 0-.5-.3-1.1-.3-1.6 0-.6.5-1.5.5-2.1 0-.5-.3-1.1-.3-1.6 0-.2.1-.3.2-.5.3v3.5c-.2 0-.3 0-.5 0s-.3 0-.5 0v-3.5c-.2 0-.4-.1-.5-.3-.2-.2-.5-.3-.8-.3s-.6.1-.8.3c-.3.2-.7.4-1.1.4s-.8-.1-1.1-.4c-.1-.2-.4-.3-.7-.3s-.6.1-.8.3c-.3.2-.7.4-1.1.4s-.8-.1-1-.4c-.2-.1-.3-.2-.5-.2-.1 2.1.1 4.1.7 6.1h5.4v.5c0 .2 0 .4.1.5h-5.1c1.4 3.5 3.9 6.3 7.2 8.1v-6h.5s.3 0 .5 0v6c3.3-1.7 5.9-4.6 7.2-8.1h-5.1c0-.2.1-.3.1-.5s0-.3 0-.5h5.5c.6-2 .8-4 .7-6.1m-11.8 1.7c.2.4.6.7 1 .9.5.2 1 .6 1.2 1.1.1.1.1.2.2.3-.4.1-.9.3-1.2.6-.1-.1-.1-.3-.1-.4-.1-.5-.3-1-.7-1.4-.2-.3-.4-.7-.4-1.1m0 3.8c-.2-.5-.6-.8-1.1-1.1-.3-.2-.6-.5-.7-.9.3.3.8.5 1.2.5.6 0 1.1.3 1.5.7l.1.1c-.3.3-.5.8-.7 1.2-.1-.2-.2-.3-.3-.5m-1.9 4.1c.4-.2.7-.6.9-1 .2-.5.6-1 1.2-1.2.1-.1.2-.1.3-.2.1.4.3.9.7 1.2-.2.1-.3.1-.5.1-.5.1-1 .3-1.4.7-.5.3-.8.4-1.2.4m3.8 0c-.5.2-.8.6-1.1 1.1-.2.3-.5.6-.9.7.3-.3.4-.8.5-1.2 0-.6.3-1.1.7-1.5l.1-.1c.3.3.8.5 1.2.6-.2.2-.3.3-.5.4m2.1-6.1c.5-.2.8-.6 1.1-1.1.2-.3.5-.6.9-.7-.3.3-.4.8-.5 1.2 0 .6-.3 1.1-.7 1.5 0 0-.1.1-.1.2-.3-.3-.8-.5-1.2-.6.2-.2.3-.3.5-.5m1.9 8c-.2-.4-.6-.7-1-.9-.5-.2-1-.6-1.2-1.1-.1-.1-.1-.2-.2-.3.4-.1.9-.3 1.2-.6.1.1.1.3.1.4.1.5.3 1 .7 1.4.2.3.4.7.4 1.1m0-3.8c.2.5.6.8 1.1 1.1.3.2.6.5.7.9-.4-.3-.8-.4-1.2-.5-.6 0-1.1-.3-1.5-.7l-.1-.1c.3-.3.5-.7.7-1.2.1.2.2.3.3.5m1.1-3.2c-.2.5-.6 1-1.2 1.2-.1.1-.2.1-.3.2-.1-.4-.3-.8-.6-1.1l-.1-.1c.2-.1.3-.1.5-.1.5 0 1-.3 1.4-.7.3-.2.7-.4 1.1-.4-.3.3-.6.6-.8 1"/><path d="m2.6 10.2c.3 0 .6-.1.8-.3.3-.2.7-.4 1-.3.4 0 .7.1 1 .3.2.2.5.3.8.3s.6-.1.8-.3c.3-.2.7-.4 1-.4.4 0 .7.1 1 .4.2.2.5.3.8.3.3 0 .6-.1.8-.3.6-.5 1.4-.5 2.1 0 .5.3 1.1.3 1.6 0 .6-.5 1.4-.5 2.1 0 .5.3 1.1.3 1.6 0 .2-.2.4-.3.7-.3l-2.8-5.7c-.4.3-.9.5-1.4.4-.9 0-1-.4-2.4-.4-.8-.1-1.5.2-2.1.7-.7-.5-1.5-.8-2.2-.7-1.4 0-1.5.4-2.4.4-.5.1-1 0-1.4-.4l-2.9 5.7c.3 0 .5.1.7.3.3.2.5.3.8.3zm9.5-5.3c1.3 0 1.5.4 2.4.4.4 0 .8 0 1.2-.2l1.6 3.2s-.2.2-1.5.2-1.5-.7-3.6-.7c-.6 0-1.1.2-1.6.6l-.7-2.8c.6-.5 1.4-.8 2.2-.7zm-8 .2c.4.2.8.2 1.2.2.9 0 1.1-.4 2.4-.4.8-.1 1.6.2 2.2.7l-.8 2.9c-.4-.4-1-.6-1.6-.6-2 0-2.2.7-3.6.7s-1.4-.2-1.4-.2z"/></g></svg>